<svg xmlns="http://www.w3.org/2000/svg" xmlns:xlink="http://www.w3.org/1999/xlink" width="411" height="230" viewBox="0 0 411 230">
  <defs>
    <linearGradient id="linear-gradient" x1="0.522" y1="0.385" x2="0.5" y2="1" gradientUnits="objectBoundingBox">
      <stop offset="0" stop-color="#ffe3cb"/>
      <stop offset="1" stop-color="#fff"/>
    </linearGradient>
  </defs>
  <g id="enjoy" transform="translate(-31 -48.892)">
    <path id="Path_1726" data-name="Path 1726" d="M0,0H411V230H0Z" transform="translate(31 48.892)" fill="url(#linear-gradient)"/>
    <path id="Path_1577" data-name="Path 1577" d="M374.825,320.419l5.415-46.529,36.973.7-5.35,44.285Z" transform="translate(-136.441 -93.047)" fill="#c38f86"/>
    <rect id="Rectangle_512" data-name="Rectangle 512" width="39.267" height="4.168" transform="translate(322.094 234.642) rotate(180)" fill="#c38f86"/>
    <path id="Path_1578" data-name="Path 1578" d="M459.206,326.527v19.524H495a147.241,147.241,0,0,1,7.574-41.655c5.4-15.714,11.627-24.1,11.89-24.451l4.874,3.657c-.238.319-23.746,32.541-17.254,88.642l-6.053.7a174.016,174.016,0,0,1-1.166-21.41H459.206V372.6h-5.7V326.527Z" transform="translate(-175.502 -96.054)" fill="#c38f86"/>
    <path id="Path_1579" data-name="Path 1579" d="M453.5,366.337H497.6v-1.128a5.077,5.077,0,0,0-5.077-5.077h-33.94a5.077,5.077,0,0,0-5.077,5.077Z" transform="translate(-175.501 -135.864)" fill="#f65b2b"/>
    <rect id="Rectangle_513" data-name="Rectangle 513" width="4.046" height="51.026" transform="translate(266.772 225.832)" fill="#c38f86"/>
    <rect id="Rectangle_514" data-name="Rectangle 514" width="4.046" height="51.026" transform="translate(235.946 225.832)" fill="#c38f86"/>
    <rect id="Rectangle_515" data-name="Rectangle 515" width="44.716" height="6.748" rx="3.374" transform="translate(230.706 223.47)" fill="#f65b2b"/>
    <path id="Path_1580" data-name="Path 1580" d="M358.075,439.471l.3,9.521s-5.337,1.308-7.853-4.881l.441-5.56Z" transform="translate(-124.377 -174.796)" fill="#f9977a"/>
    <path id="Path_1581" data-name="Path 1581" d="M345.333,446.819s4.244,5.3,1.892,8.426a1.308,1.308,0,0,1-1.052.514l-21.041-.114a.686.686,0,0,1-.675-.767,4.719,4.719,0,0,1,2.688-3.967c2.927-1.287,5,1.032,9.883-3.165C337.027,447.746,343.352,449.564,345.333,446.819Z" transform="translate(-111.432 -178.901)" fill="#935b50"/>
    <path id="Path_1582" data-name="Path 1582" d="M408.554,439.471l.3,9.521s-5.337,1.308-7.853-4.881l.441-5.56Z" transform="translate(-149.438 -174.796)" fill="#f9977a"/>
    <path id="Path_1583" data-name="Path 1583" d="M395.812,446.819s4.244,5.3,1.892,8.426a1.307,1.307,0,0,1-1.052.514l-21.041-.114a.686.686,0,0,1-.676-.767,4.719,4.719,0,0,1,2.688-3.967c2.927-1.287,5,1.032,9.883-3.165C387.506,447.746,393.832,449.564,395.812,446.819Z" transform="translate(-136.493 -178.901)" fill="#935b50"/>
    <path id="Path_1584" data-name="Path 1584" d="M368.267,248.532l-7.352,3.609-13.625,9.224,4.255,7.44,10.309-2.288s4.007,7.814,7.081,13.429l-.668,8.021h32.216l-1.871-20.987s.134-13.635-6.149-17.378c0,0-3.743-2.406-10.961-2.272a7.646,7.646,0,0,0-1.8-2.657Z" transform="translate(-122.771 -78.542)" fill="#f73c4f"/>
    <path id="Path_1585" data-name="Path 1585" d="M400.55,330.58s4.27,16.067-17.081,16.562l1.068,40.951h-12.6l-1.495-42.186-10.43.562-.887,41.625H347.289l.737-45.4c0-6.689,4.684-12.112,10.462-12.112Z" transform="translate(-122.77 -121.192)" fill="#ffba55"/>
    <path id="Path_1586" data-name="Path 1586" d="M420.706,350.87a10.658,10.658,0,0,1-.1,3.35,7.312,7.312,0,0,1-.484,1.623,3.454,3.454,0,0,1-.982,1.371,5.232,5.232,0,0,0,.693-1.481,12.424,12.424,0,0,0,.384-1.587C420.426,353.071,420.547,351.978,420.706,350.87Z" transform="translate(-158.442 -131.265)" fill="#e6952a"/>
    <path id="Path_1587" data-name="Path 1587" d="M399.182,330.52a2.464,2.464,0,0,0-2.006.661,5.564,5.564,0,0,0-1.308,1.722,15.744,15.744,0,0,0-1.41,4.152l-.244,1.078-.178,1.093-.176,1.094c-.037.368-.082.735-.129,1.1-.209,1.466-.285,2.946-.456,4.424.006-1.484.006-2.974.152-4.456.026-.371.056-.742.092-1.113l.16-1.106.162-1.107.231-1.1a14.938,14.938,0,0,1,1.532-4.213,5.744,5.744,0,0,1,1.454-1.725A2.479,2.479,0,0,1,399.182,330.52Z" transform="translate(-145.601 -121.132)" fill="#e6952a"/>
    <path id="Path_1588" data-name="Path 1588" d="M370.214,358.571l-.468-1.018c-.159-.331-.314-.662-.5-.971a4.538,4.538,0,0,0-1.414-1.621,2.146,2.146,0,0,1,1.032.514,3.581,3.581,0,0,1,.725.91A4.745,4.745,0,0,1,370.214,358.571Z" transform="translate(-132.97 -133.297)" fill="#e6952a"/>
    <path id="Path_1589" data-name="Path 1589" d="M380.007,314.586l-6.934-1.244a2.633,2.633,0,0,0-2.16.475l-4.594,3.492c1.007,2.387,13.535,2.358,13.535,2.358S381.391,314.664,380.007,314.586Z" transform="translate(-132.218 -112.603)" fill="#f9977a"/>
    <path id="Path_1590" data-name="Path 1590" d="M369.764,320.2a25.13,25.13,0,0,1,1.982-1.74c.687-.545,1.389-1.071,2.112-1.569l.04-.028.035,0q.885-.061,1.778-.044-.868.211-1.745.347l.075-.03c-.672.565-1.366,1.1-2.075,1.618A25.136,25.136,0,0,1,369.764,320.2Z" transform="translate(-133.929 -114.356)" fill="#dd765e"/>
    <path id="Path_1591" data-name="Path 1591" d="M374.941,322.136a13.158,13.158,0,0,1,1.3-1.286c.458-.4.927-.781,1.418-1.136l.038-.028.029-.005a12.4,12.4,0,0,1,1.492-.178,12.461,12.461,0,0,1-1.417.5l.067-.033c-.448.409-.919.79-1.4,1.157A13.181,13.181,0,0,1,374.941,322.136Z" transform="translate(-136.499 -115.693)" fill="#dd765e"/>
    <path id="Path_1592" data-name="Path 1592" d="M381.121,323.969a5.122,5.122,0,0,1,1.023-1.422l.048-.05.053-.008a4.305,4.305,0,0,1,1.119-.041,4.307,4.307,0,0,1-1.044.406l.1-.058a5.123,5.123,0,0,1-1.3,1.173Z" transform="translate(-139.567 -117.145)" fill="#dd765e"/>
    <path id="Path_1593" data-name="Path 1593" d="M395.327,207.446a9.878,9.878,0,0,0-4.63.089,7.9,7.9,0,0,0-4.708,3.254c-.531.882-.71,1.974-1.069,4.157-.224,1.364-.818,2.311-.928,3.985a14.172,14.172,0,0,0,.4,4.038c.481,2.064.008,3.188.29,3.586,1.136,1.607,4.971.66,4.895,2.653-.047,1.231-4.253,4.991-2.853,5.339a15.379,15.379,0,0,0,8.872-.809c.25-.111,3.1-.749,3-2.937-.051-1.169-.38-8.586-.239-9.283.511-2.517,1.811-2.741,3.024-5.744a4.785,4.785,0,0,0-.483-4.656A9.775,9.775,0,0,0,395.327,207.446Z" transform="translate(-140.984 -59.945)" fill="#f9977a"/>
    <ellipse id="Ellipse_298" data-name="Ellipse 298" cx="0.643" cy="0.517" rx="0.643" ry="0.517" transform="translate(243.763 157.796) rotate(-86.197)" fill="#0a0709"/>
    <ellipse id="Ellipse_299" data-name="Ellipse 299" cx="0.643" cy="0.517" rx="0.643" ry="0.517" transform="translate(248.412 158.105) rotate(-86.197)" fill="#0a0709"/>
    <path id="Path_1594" data-name="Path 1594" d="M387.921,223.674a.325.325,0,0,1-.195-.065,2.763,2.763,0,0,0-3.113-.219.326.326,0,1,1-.356-.546,3.464,3.464,0,0,1,3.86.243.326.326,0,0,1-.2.587Z" transform="translate(-141.05 -67.469)" fill="#1e1d22"/>
    <path id="Path_1595" data-name="Path 1595" d="M397.49,224.311a.326.326,0,0,1-.2-.065,2.757,2.757,0,0,0-3.112-.219.326.326,0,0,1-.357-.546,3.466,3.466,0,0,1,3.86.243.326.326,0,0,1-.2.587Z" transform="translate(-145.801 -67.786)" fill="#1e1d22"/>
    <path id="Path_1596" data-name="Path 1596" d="M390.761,225.281a2.559,2.559,0,0,1-.237,1.612,5.921,5.921,0,0,1-.889,1.389c-.183.211-.441.36-.438.579a.93.93,0,0,0,.305.643,2.008,2.008,0,0,0,1.477.432,1.87,1.87,0,0,1-1.592-.31,1.037,1.037,0,0,1-.388-.776.633.633,0,0,1,.2-.423l.281-.293a6.493,6.493,0,0,0,.9-1.318,2.915,2.915,0,0,0,.385-1.534Z" transform="translate(-143.478 -68.915)" fill="#dd765e"/>
    <path id="Path_1597" data-name="Path 1597" d="M409.25,226.827a1.357,1.357,0,0,1,1.03.5,2.391,2.391,0,0,1,.32.49l.107.269c.022.1.05.187.064.283a7.767,7.767,0,0,0-.654-.9,2.389,2.389,0,0,0-.389-.372,1.966,1.966,0,0,0-.478-.277Z" transform="translate(-153.532 -69.682)" fill="#dd765e"/>
    <path id="Path_1598" data-name="Path 1598" d="M409.558,229.931a1.887,1.887,0,0,1-.119-1.239,2.089,2.089,0,0,1,.244-.587,1.739,1.739,0,0,1,.418-.467c-.095.188-.2.359-.27.545a2.669,2.669,0,0,0-.181.559A3.964,3.964,0,0,0,409.558,229.931Z" transform="translate(-153.599 -70.085)" fill="#dd765e"/>
    <path id="Path_1599" data-name="Path 1599" d="M395.958,218.455a5.033,5.033,0,0,1,.478-2.113c.43-.914.967-2.162,1.89-2.186.68-.018.964-.178,1.164.491.331,1.106-.448,2.251-.989,3.048-.776,1.141-1.385,1.36-1.45,2.181-.05.626,1.654,2.016,2.009,1.794.724-.453.445-1.973,2.567-5.4,1.34-2.167,1.915-2.552,2.147-3.945.082-.495.422-2.542-.739-3.823-.538-.594-.877-.447-3.308-1.672a20.682,20.682,0,0,1-1.972-1.073c-1.921-1.221-1.839-1.778-2.983-2.187-1.034-.369-1.126.076-3.13-.177-1.932-.244-2.075-.687-2.989-.491a4.43,4.43,0,0,0-2.675,2.387,5.369,5.369,0,0,0-.767,2.464,4.844,4.844,0,0,0,.784,2.5c.236.274,1.36-1.142,1.956-1.664s1.192-.245,2.036-.136c.824.106.744.618,1.937,1.152.425.19,2.224-.476,2.723.528.532,1.07.991,1.226.645,2.165a7.244,7.244,0,0,0-.036,2.815,24.328,24.328,0,0,1-1.013,4.7C393.884,220.43,395.947,220.086,395.958,218.455Z" transform="translate(-141.597 -57.778)" fill="#1e1d22"/>
    <path id="Path_1600" data-name="Path 1600" d="M407.1,250.342a17.392,17.392,0,0,1-3.075,8.889,5.415,5.415,0,0,0-5.28-1.8s7.434-6.169,7.1-7.085Z" transform="translate(-148.316 -81.357)" fill="#f73c4f"/>
    <path id="Path_1601" data-name="Path 1601" d="M391.991,257.76a3.164,3.164,0,0,0-4.679,0c-.6-5.481.8-6.216.8-6.216l3.018-1.2Z" transform="translate(-142.566 -81.356)" fill="#f73c4f"/>
    <path id="Path_1602" data-name="Path 1602" d="M387.972,252.731a2.648,2.648,0,0,0-.638,1.426,9.353,9.353,0,0,0-.155,1.581c-.011.531-.009,1.064.025,1.6s.09,1.062.129,1.595l-.282-.095a4.19,4.19,0,0,1,1.131-.775,2.968,2.968,0,0,1,1.332-.3,2.673,2.673,0,0,1,1.306.345,3.629,3.629,0,0,1,.554.376c.171.142.319.309.475.463-.178-.131-.345-.274-.524-.4a3.5,3.5,0,0,0-.571-.305,2.609,2.609,0,0,0-1.235-.238,3.183,3.183,0,0,0-1.208.324,3.906,3.906,0,0,0-1.021.729l-.243.245-.039-.34a19.06,19.06,0,0,1-.107-3.241,9.561,9.561,0,0,1,.262-1.608,4.226,4.226,0,0,1,.3-.762A1.516,1.516,0,0,1,387.972,252.731Z" transform="translate(-142.423 -82.543)" fill="#b02336"/>
    <path id="Path_1603" data-name="Path 1603" d="M407.1,250.342a14.2,14.2,0,0,1-.212,2.38,17.123,17.123,0,0,1-.566,2.329,15.747,15.747,0,0,1-.905,2.226,13.22,13.22,0,0,1-1.266,2.047l-.119.168-.132-.17a4.582,4.582,0,0,0-1.034-.95,5.106,5.106,0,0,0-1.264-.657,5.811,5.811,0,0,0-1.4-.3,7.477,7.477,0,0,0-1.454.016,6.358,6.358,0,0,1,1.461-.145,5.132,5.132,0,0,1,1.464.229,5.317,5.317,0,0,1,1.356.624,4.841,4.841,0,0,1,1.126,1.006l-.251,0a16.305,16.305,0,0,0,2.143-4.181A20.719,20.719,0,0,0,407.1,250.342Z" transform="translate(-148.316 -81.357)" fill="#b02336"/>
    <path id="Path_1604" data-name="Path 1604" d="M367.5,250c-.037-.485,1.062-1.039,1.246-1.132a3.441,3.441,0,0,1,1.374-.353,3.659,3.659,0,0,1,1.925.345,3.6,3.6,0,0,1,.95.689c.252.253,1,1.01.86,1.4C373.5,251.915,367.586,251.1,367.5,250Z" transform="translate(-132.805 -80.442)" fill="#d8a935"/>
    <path id="Path_1605" data-name="Path 1605" d="M343.517,240.416l1.075-.408s1.056.058.506,1.123a2.253,2.253,0,0,1-1.636,1.183l-1.931.21Z" transform="translate(-119.911 -76.226)" fill="#dd765e"/>
    <path id="Path_1606" data-name="Path 1606" d="M348.873,244.315c-4.528-3.334-16.141-5.8-16.646-5.921a.594.594,0,0,0-.275,1.157,99.28,99.28,0,0,1,16.388,5.927c.3.432,1.1.981,2.886,1.64,4.947,1.827,6.537-1.69,6.537-1.69Z" transform="translate(-114.929 -75.417)" fill="#160b07"/>
    <path id="Path_1607" data-name="Path 1607" d="M333.227,249.094l-2.133-3.351a2.391,2.391,0,0,1-.355-1.581h0a3.248,3.248,0,0,1,1.727-2.48l3.974-2.063s1.111-.148.488,1.154l-1.8,1.557,3.44-.375s1.026.531-.156,1.246c0,0,2.654-.07.8,1.423l-2.017.5.184.152a3.5,3.5,0,0,1,1.224,3.239l-1.6,10.1,8.826-3.668,2.982,8.568-13.949,5.1a4.637,4.637,0,0,1-6.011-5.763Z" transform="translate(-113.504 -76.031)" fill="#f9977a"/>
    <path id="Path_1608" data-name="Path 1608" d="M341.8,247.547a.143.143,0,0,1-.036-.281l3.077-.808a.143.143,0,0,1,.072.276l-3.077.808a.15.15,0,0,1-.036,0Z" transform="translate(-119.974 -79.426)" fill="#dd765e"/>
    <path id="Path_1609" data-name="Path 1609" d="M342.3,289.831a.851.851,0,0,1-.105-.007.143.143,0,0,1-.124-.159.141.141,0,0,1,.159-.124.493.493,0,0,0,.065,0c.76,0,1.146-1.7,1.232-2.369a.143.143,0,0,1,.283.036C343.8,287.322,343.467,289.831,342.3,289.831Z" transform="translate(-120.181 -99.582)" fill="#dd765e"/>
    <path id="Path_1610" data-name="Path 1610" d="M370.7,229.213a1.81,1.81,0,0,0-.694.654,1.069,1.069,0,0,0-.087.882,5.806,5.806,0,0,0,.394.872,2.754,2.754,0,0,0,.259.393,2.237,2.237,0,0,1,.286.434,3.068,3.068,0,0,1,.283.989,1.935,1.935,0,0,1-.183,1.019,1.908,1.908,0,0,1-.663.778,1.776,1.776,0,0,1-.954.283,1.836,1.836,0,0,0,1.416-1.147,1.928,1.928,0,0,0,.126-.907,2.832,2.832,0,0,0-.281-.891,1.957,1.957,0,0,0-.246-.393,3.036,3.036,0,0,1-.271-.436,4.333,4.333,0,0,1-.376-.939,1.243,1.243,0,0,1,.182-1.011A1.721,1.721,0,0,1,370.7,229.213Z" transform="translate(-133.718 -70.867)" fill="#bababa"/>
    <path id="Path_1611" data-name="Path 1611" d="M375.977,233.459a1.81,1.81,0,0,0-.694.654,1.069,1.069,0,0,0-.087.882,5.8,5.8,0,0,0,.394.872,2.759,2.759,0,0,0,.259.393,2.24,2.24,0,0,1,.286.434,3.068,3.068,0,0,1,.283.989,1.934,1.934,0,0,1-.183,1.019,1.907,1.907,0,0,1-.663.778,1.774,1.774,0,0,1-.954.283,1.836,1.836,0,0,0,1.416-1.147,1.928,1.928,0,0,0,.126-.907,2.831,2.831,0,0,0-.281-.891,1.953,1.953,0,0,0-.246-.393,3.027,3.027,0,0,1-.271-.436,4.332,4.332,0,0,1-.376-.939,1.243,1.243,0,0,1,.182-1.011A1.719,1.719,0,0,1,375.977,233.459Z" transform="translate(-136.339 -72.975)" fill="#bababa"/>
    <path id="Path_1612" data-name="Path 1612" d="M379.333,226.377a1.81,1.81,0,0,0-.694.654,1.069,1.069,0,0,0-.087.882,5.817,5.817,0,0,0,.394.872,2.752,2.752,0,0,0,.259.393,2.239,2.239,0,0,1,.286.434,3.068,3.068,0,0,1,.283.989,1.934,1.934,0,0,1-.183,1.019,1.907,1.907,0,0,1-.663.777,1.775,1.775,0,0,1-.954.283,1.836,1.836,0,0,0,1.416-1.147,1.929,1.929,0,0,0,.126-.907,2.832,2.832,0,0,0-.281-.891,1.958,1.958,0,0,0-.246-.393,3.022,3.022,0,0,1-.271-.436,4.33,4.33,0,0,1-.376-.939,1.243,1.243,0,0,1,.182-1.011,1.721,1.721,0,0,1,.811-.579Z" transform="translate(-138.005 -69.459)" fill="#bababa"/>
    <circle id="Ellipse_300" data-name="Ellipse 300" cx="1.374" cy="1.374" r="1.374" transform="translate(245.619 162.674)" fill="#dd2f22"/>
    <path id="Path_1613" data-name="Path 1613" d="M387.985,234.416c-1.095-.111-1.264-.673-3.323,1.7,0,0,2.173-.523,6.327.777C390.988,236.893,389.553,234.574,387.985,234.416Z" transform="translate(-141.325 -73.382)" fill="#1e1d22"/>
    <path id="Path_1614" data-name="Path 1614" d="M333.122,258.44l5.219.364-1.451,9.151,8.347-4.709,6.011,9.419-16.382,5.371a4.777,4.777,0,0,1-6.216-5.963Z" transform="translate(-113.399 -85.377)" fill="#f73c4f"/>
    <path id="Path_1615" data-name="Path 1615" d="M372.564,280.605c.369.581.7,1.179,1.035,1.78s.635,1.214.954,1.82c.294.619.6,1.231.884,1.855s.559,1.252.8,1.9c-.37-.581-.705-1.179-1.036-1.78s-.636-1.214-.954-1.821c-.294-.619-.6-1.231-.884-1.856S372.807,281.249,372.564,280.605Z" transform="translate(-135.319 -96.381)" fill="#b02336"/>
    <path id="Path_1616" data-name="Path 1616" d="M424.6,265.136a19.022,19.022,0,0,1,.993-2.624,20.327,20.327,0,0,1,1.35-2.469,11.886,11.886,0,0,1,1.79-2.184,5.426,5.426,0,0,1,2.417-1.411,6.414,6.414,0,0,0-2.234,1.6,13.244,13.244,0,0,0-1.689,2.183,25.491,25.491,0,0,0-1.4,2.4C425.391,263.449,424.984,264.286,424.6,265.136Z" transform="translate(-161.151 -84.388)" fill="#b02336"/>
    <path id="Path_1617" data-name="Path 1617" d="M407.349,278.482a45.184,45.184,0,0,0,.185,6.337,22.925,22.925,0,0,0,.514,3.121,9.724,9.724,0,0,0,1.117,2.924l.015.023v.027l.01,3.342v.094l-.094.009-17.172,1.722.06-.29a2.849,2.849,0,0,1,1.083,1.789,6.433,6.433,0,0,1,.086,2.054c-.042.338-.094.676-.161,1.009-.086.328-.147.664-.254.986-.189.652-.433,1.282-.68,1.911l-.149-.223,17.57.053,4.392.013,2.2.007a7.694,7.694,0,0,0,2.159-.15,4.07,4.07,0,0,0,1.832-1.1,4.223,4.223,0,0,0,1.032-1.884,18.352,18.352,0,0,0,.626-4.332,18.391,18.391,0,0,1-.552,4.352,4.32,4.32,0,0,1-1.022,1.943,4.2,4.2,0,0,1-1.872,1.165,7.38,7.38,0,0,1-2.2.181l-2.2.007-4.392.013-17.57.053h-.235l.086-.223c.239-.621.476-1.243.657-1.881a12.659,12.659,0,0,0,.4-1.938,6.114,6.114,0,0,0-.068-1.947,2.589,2.589,0,0,0-.919-1.59l-.364-.25.424-.04,17.182-1.62-.094.1.01-3.342.015.05a9.735,9.735,0,0,1-1.12-2.987,23.053,23.053,0,0,1-.463-3.147A45.234,45.234,0,0,1,407.349,278.482Z" transform="translate(-144.705 -95.327)" fill="#b02336"/>
    <path id="Path_1618" data-name="Path 1618" d="M407.891,319.108a10.839,10.839,0,0,0-.006-1.985,8.583,8.583,0,0,0-.394-1.919,8.214,8.214,0,0,0-.337-.918c-.15-.289-.289-.586-.466-.862a10.069,10.069,0,0,0-1.2-1.576,6.22,6.22,0,0,1,1.42,1.433,6.458,6.458,0,0,1,.908,1.822,7.558,7.558,0,0,1,.33,2.007A6.5,6.5,0,0,1,407.891,319.108Z" transform="translate(-151.664 -111.892)" fill="#b02336"/>
    <path id="Path_1619" data-name="Path 1619" d="M433.308,314.122a18.114,18.114,0,0,0-1.566-1.679,14.427,14.427,0,0,0-1.765-1.45,14.983,14.983,0,0,0-1.952-1.172,11.4,11.4,0,0,0-2.106-.816l-.47-.127.436-.188a10.741,10.741,0,0,1,2.03-.631,8.481,8.481,0,0,1,2.113-.192,6.262,6.262,0,0,1,2.07.453,4.966,4.966,0,0,1,1.678,1.257,5.237,5.237,0,0,0-1.737-1.109,6.233,6.233,0,0,0-2.016-.348,9.822,9.822,0,0,0-2.042.237,10.453,10.453,0,0,0-1.953.636l-.034-.315a10.514,10.514,0,0,1,2.174.863,13.211,13.211,0,0,1,1.97,1.234,14.065,14.065,0,0,1,3.172,3.346Z" transform="translate(-161.574 -109.914)" fill="#b02336"/>
    <path id="Path_1620" data-name="Path 1620" d="M367.652,283.791a15.207,15.207,0,0,1,2.231.921,15.028,15.028,0,0,1,2.08,1.226,15.029,15.029,0,0,1-2.231-.921,15.2,15.2,0,0,1-2.08-1.226Z" transform="translate(-132.88 -97.963)" fill="#b02336"/>
    <path id="Path_1621" data-name="Path 1621" d="M388.074,252.731a2.648,2.648,0,0,0-.638,1.426,9.353,9.353,0,0,0-.155,1.581c-.011.531-.009,1.064.025,1.6s.09,1.062.129,1.595l-.282-.095a4.19,4.19,0,0,1,1.131-.775,2.967,2.967,0,0,1,1.332-.3,2.673,2.673,0,0,1,1.306.345,3.632,3.632,0,0,1,.554.376c.171.142.319.309.475.463-.178-.131-.345-.274-.524-.4a3.5,3.5,0,0,0-.571-.305,2.609,2.609,0,0,0-1.235-.238,3.183,3.183,0,0,0-1.208.324,3.907,3.907,0,0,0-1.021.729l-.243.245-.039-.34a19.06,19.06,0,0,1-.107-3.241,9.561,9.561,0,0,1,.262-1.608,4.222,4.222,0,0,1,.3-.762A1.515,1.515,0,0,1,388.074,252.731Z" transform="translate(-142.473 -82.543)" fill="#b02336"/>
    <path id="Path_1622" data-name="Path 1622" d="M407.2,250.342a14.193,14.193,0,0,1-.212,2.38,17.114,17.114,0,0,1-.566,2.329,15.75,15.75,0,0,1-.905,2.226,13.224,13.224,0,0,1-1.266,2.047l-.119.168-.132-.17a4.583,4.583,0,0,0-1.034-.95,5.106,5.106,0,0,0-1.264-.657,5.811,5.811,0,0,0-1.4-.3,7.476,7.476,0,0,0-1.453.016,6.359,6.359,0,0,1,1.461-.145,5.132,5.132,0,0,1,1.464.229,5.316,5.316,0,0,1,1.356.624,4.841,4.841,0,0,1,1.126,1.006l-.251,0a16.307,16.307,0,0,0,2.143-4.181,20.717,20.717,0,0,0,1.056-4.616Z" transform="translate(-148.367 -81.357)" fill="#b02336"/>
    <path id="Path_1623" data-name="Path 1623" d="M397.651,265.075l.681,11.909q.156,2.977.387,5.948c.07.991.156,1.98.269,2.966.051.494.1.988.181,1.478.042.244.063.494.122.734l.174.725a31.509,31.509,0,0,1-1.007-5.879c-.208-1.98-.335-3.966-.465-5.951-.1-1.987-.2-3.974-.257-5.962l-.07-2.983Z" transform="translate(-147.773 -88.671)" fill="#b02336"/>
    <path id="Path_1624" data-name="Path 1624" d="M339.415,280.5a8.5,8.5,0,0,1-.306,2.959,6.041,6.041,0,0,1-.577,1.39,3.328,3.328,0,0,1-1,1.113,5.219,5.219,0,0,0,.766-1.235,9.494,9.494,0,0,0,.486-1.362c.139-.464.245-.939.348-1.417S339.327,280.988,339.415,280.5Z" transform="translate(-117.925 -96.329)" fill="#b02336"/>
    <rect id="Rectangle_516" data-name="Rectangle 516" width="4.214" height="66.848" transform="translate(196.412 276.892) rotate(180)" fill="#935b50"/>
    <rect id="Rectangle_517" data-name="Rectangle 517" width="126.644" height="3.232" rx="1.443" transform="translate(310.773 210.043) rotate(180)" fill="#935b50"/>
    <rect id="Rectangle_518" data-name="Rectangle 518" width="4.214" height="66.848" transform="translate(302.369 276.892) rotate(180)" fill="#935b50"/>
    <path id="Path_1625" data-name="Path 1625" d="M1.453,0H115.394a1.453,1.453,0,0,1,1.453,1.453v9.119H0V1.453A1.453,1.453,0,0,1,1.453,0Z" transform="translate(305.731 220.616) rotate(180)" fill="#c38f86"/>
    <path id="Path_1626" data-name="Path 1626" d="M285.094,314.1s9.426-9.879,19.215-1.269Z" transform="translate(-91.893 -110.63)" fill="#d8a935"/>
    <path id="Path_1627" data-name="Path 1627" d="M299.866,320.122h-17.3l-5.035-5.321H304.9Z" transform="translate(-88.139 -113.358)" fill="#c6c6c6"/>
    <path id="Path_1628" data-name="Path 1628" d="M314.619,294.764a1.72,1.72,0,0,1,.733.676,1.243,1.243,0,0,1,.055,1.026,4.331,4.331,0,0,1-.49.885,3.025,3.025,0,0,1-.323.4,1.954,1.954,0,0,0-.293.359,2.832,2.832,0,0,0-.39.849,1.927,1.927,0,0,0,.012.915,1.835,1.835,0,0,0,1.262,1.314,1.774,1.774,0,0,1-.912-.4,1.908,1.908,0,0,1-.561-.854,1.935,1.935,0,0,1-.055-1.034,3.066,3.066,0,0,1,.4-.946,2.239,2.239,0,0,1,.338-.4,2.757,2.757,0,0,0,.306-.358,5.808,5.808,0,0,0,.5-.816,1.069,1.069,0,0,0,.023-.886A1.81,1.81,0,0,0,314.619,294.764Z" transform="translate(-106.05 -103.411)" fill="#bababa"/>
    <path id="Path_1629" data-name="Path 1629" d="M304.935,283.112a1.72,1.72,0,0,1,.733.676,1.244,1.244,0,0,1,.055,1.026,4.33,4.33,0,0,1-.49.885,3.034,3.034,0,0,1-.323.4,1.954,1.954,0,0,0-.293.359,2.833,2.833,0,0,0-.39.849,1.929,1.929,0,0,0,.012.916,1.836,1.836,0,0,0,1.262,1.314,1.774,1.774,0,0,1-.912-.4,1.906,1.906,0,0,1-.561-.854,1.935,1.935,0,0,1-.055-1.034,3.068,3.068,0,0,1,.4-.946,2.243,2.243,0,0,1,.338-.4,2.758,2.758,0,0,0,.306-.358,5.805,5.805,0,0,0,.5-.816,1.069,1.069,0,0,0,.023-.886A1.809,1.809,0,0,0,304.935,283.112Z" transform="translate(-101.242 -97.626)" fill="#bababa"/>
    <path id="Path_1630" data-name="Path 1630" d="M294.59,291.908a1.72,1.72,0,0,1,.733.676,1.244,1.244,0,0,1,.055,1.026,4.333,4.333,0,0,1-.49.885,3.034,3.034,0,0,1-.324.4,1.956,1.956,0,0,0-.293.359,2.83,2.83,0,0,0-.39.849,1.928,1.928,0,0,0,.012.915,1.836,1.836,0,0,0,1.262,1.314,1.774,1.774,0,0,1-.912-.4,1.907,1.907,0,0,1-.561-.854,1.934,1.934,0,0,1-.055-1.034,3.065,3.065,0,0,1,.4-.946,2.24,2.24,0,0,1,.338-.4,2.758,2.758,0,0,0,.306-.358,5.8,5.8,0,0,0,.5-.816,1.069,1.069,0,0,0,.023-.886,1.81,1.81,0,0,0-.607-.735Z" transform="translate(-96.107 -101.993)" fill="#bababa"/>
    <path id="Path_1631" data-name="Path 1631" d="M348.891,324.016h-5l.635-1.491h3.729Z" transform="translate(-121.084 -117.193)" fill="#ffba55"/>
    <path id="Path_1632" data-name="Path 1632" d="M335.035,309.846h13.716v.018a6.858,6.858,0,0,1-6.858,6.858h0a6.858,6.858,0,0,1-6.858-6.858v-.018Z" transform="translate(-116.687 -110.898)" fill="#7ca1b1"/>
    <rect id="Rectangle_519" data-name="Rectangle 519" width="47.493" height="64.352" transform="translate(124.673 202.923)" fill="#e19974"/>
    <rect id="Rectangle_520" data-name="Rectangle 520" width="56.557" height="1.813" transform="translate(120.141 197.484)" fill="#935b50"/>
    <rect id="Rectangle_521" data-name="Rectangle 521" width="34.986" height="9.426" transform="translate(130.927 205.642)" fill="#d6694b"/>
    <path id="Path_1633" data-name="Path 1633" d="M192.025,314.165H144.532L140,310.54h56.557Z" transform="translate(-19.859 -111.243)" fill="#d6694b"/>
    <rect id="Rectangle_522" data-name="Rectangle 522" width="34.986" height="41.511" transform="translate(130.927 219.962)" fill="#d6694b"/>
    <rect id="Rectangle_523" data-name="Rectangle 523" width="25.197" height="30.091" transform="translate(135.821 225.672)" fill="#935b50"/>
    <rect id="Rectangle_524" data-name="Rectangle 524" width="52.388" height="2.639" transform="translate(122.226 267.274)" fill="#935b50"/>
    <path id="Path_1634" data-name="Path 1634" d="M158.6,457.759h-1.944l-2.518-6.979h6.979Z" transform="translate(-26.879 -180.867)" fill="#e19974"/>
    <path id="Path_1635" data-name="Path 1635" d="M228.781,457.759h-1.944l-2.518-6.979H231.3Z" transform="translate(-61.721 -180.867)" fill="#e19974"/>
    <circle id="Ellipse_301" data-name="Ellipse 301" cx="1.631" cy="1.631" r="1.631" transform="translate(146.426 208.723)" fill="#935b50"/>
    <circle id="Ellipse_302" data-name="Ellipse 302" cx="1.631" cy="1.631" r="1.631" transform="translate(155.741 239.086)" fill="#e19974"/>
    <path id="Path_1636" data-name="Path 1636" d="M219.172,171.76h-70.99V91.18h70.99ZM150.7,169.238h65.945V93.7H150.7Z" transform="translate(-23.921 -2.338)" fill="#d6694b"/>
    <rect id="Rectangle_525" data-name="Rectangle 525" width="75.969" height="3.776" rx="1.352" transform="translate(121.772 169.445)" fill="#935b50"/>
    <rect id="Rectangle_526" data-name="Rectangle 526" width="65.945" height="3.021" transform="translate(126.784 115.678)" fill="#e19974"/>
    <rect id="Rectangle_527" data-name="Rectangle 527" width="31.09" height="0.528" transform="translate(137.093 150.474) rotate(-43.829)" fill="#e19974"/>
    <rect id="Rectangle_528" data-name="Rectangle 528" width="25.623" height="0.528" transform="translate(137.094 137.525) rotate(-42.773)" fill="#e19974"/>
    <path id="Path_1637" data-name="Path 1637" d="M154.9,179.687a2.872,2.872,0,0,1-1.261.264,2.84,2.84,0,0,1-1.261-.264,2.842,2.842,0,0,1,1.261-.264,2.876,2.876,0,0,1,1.261.264Z" transform="translate(-26.002 -46.148)" fill="#e6952a"/>
    <path id="Path_1638" data-name="Path 1638" d="M240.818,233.1h-7.46l-2.513-13.21h12.486Z" transform="translate(-64.96 -66.238)" fill="#e19974"/>
    <path id="Path_1639" data-name="Path 1639" d="M243.044,221.4l.287-1.508H230.845l.287,1.508Z" transform="translate(-64.96 -66.238)" fill="#d6694b"/>
    <rect id="Rectangle_529" data-name="Rectangle 529" width="2.229" height="2.229" transform="translate(168.995 160.139) rotate(45)" fill="#d6694b"/>
    <rect id="Rectangle_530" data-name="Rectangle 530" width="2.229" height="2.229" transform="translate(172.146 160.139) rotate(45)" fill="#d6694b"/>
    <rect id="Rectangle_531" data-name="Rectangle 531" width="2.229" height="2.229" transform="translate(175.261 160.138) rotate(45)" fill="#d6694b"/>
    <path id="Path_1640" data-name="Path 1640" d="M245.695,197.811s.655,9.254-3.184,11.215C242.511,209.026,241.181,205.518,245.695,197.811Z" transform="translate(-70.661 -55.277)" fill="#558031"/>
    <path id="Path_1641" data-name="Path 1641" d="M224.411,205.705a13.539,13.539,0,0,1,9.2,7.24S226.709,210.6,224.411,205.705Z" transform="translate(-61.766 -59.196)" fill="#849f4c"/>
    <path id="Path_1642" data-name="Path 1642" d="M228.834,224.966s3.194-4.779,6.977-4.882C235.811,220.084,235.241,223.932,228.834,224.966Z" transform="translate(-63.962 -66.335)" fill="#a6b862"/>
    <path id="Path_1643" data-name="Path 1643" d="M236.659,200.43s4.432,4.047,3.037,9.9C239.7,210.326,237.241,207.724,236.659,200.43Z" transform="translate(-67.846 -56.577)" fill="#849f4c"/>
    <path id="Path_1644" data-name="Path 1644" d="M242.691,213.023s1.557-5.7,9.429-7.162C252.12,205.861,250.348,211.051,242.691,213.023Z" transform="translate(-70.841 -59.274)" fill="#a6b862"/>
    <path id="Path_1645" data-name="Path 1645" d="M254.2,216.372a12.659,12.659,0,0,0-11.514,1.49S250.013,218.741,254.2,216.372Z" transform="translate(-70.841 -64.113)" fill="#849f4c"/>
    <path id="Path_1646" data-name="Path 1646" d="M254.149,224.338s-2.9-4.645-11.459-4.274Z" transform="translate(-70.841 -66.314)" fill="#558031"/>
    <path id="Path_1647" data-name="Path 1647" d="M217.986,217.471s7.888-2.925,12.543.612C230.529,218.083,226.109,220.518,217.986,217.471Z" transform="translate(-58.576 -64.474)" fill="#558031"/>
    <path id="Path_1648" data-name="Path 1648" d="M230.832,201.772s7.038,4.978,6.029,9.225C236.86,211,231.978,207.082,230.832,201.772Z" transform="translate(-64.954 -57.243)" fill="#558031"/>
    <path id="Path_1649" data-name="Path 1649" d="M249.066,225.039s-5.8-.991-6.375-4.955A7.939,7.939,0,0,1,249.066,225.039Z" transform="translate(-70.841 -66.335)" fill="#849f4c"/>
    <path id="Path_1650" data-name="Path 1650" d="M131.425,90.112s-5.944,54.7-2.511,89.54a1.73,1.73,0,0,0,.175.623c.325.634,1.255,1.648,3.54-.153a1.878,1.878,0,0,1,.779-.376,2.419,2.419,0,0,1,2.909,1.393c1,2.23,3.731,1.317,4.478-.59.523-1.335,2.1-.963,3-.62a1.887,1.887,0,0,0,1.284.028c.95-.323,2.693-.646,3.342,1.007.722,1.838,2.068.61,2.6.018a1.791,1.791,0,0,1,1.166-.6,4.468,4.468,0,0,1,2.373.579,3.376,3.376,0,0,0,3.053.31,1.658,1.658,0,0,0,.442-.332,2.3,2.3,0,0,1,3.056-.144,2.531,2.531,0,0,0,2.405.276,1.815,1.815,0,0,1,1.919.376c.787.73,1.929,1.357,2.82.08a1.809,1.809,0,0,1,1.8-.761,2.759,2.759,0,0,1,1.254.609c.984.81,2.049-.157,2.6-.815a1.792,1.792,0,0,0,.413-1.067c.267-5.186,2.217-45.911-.029-89.384Z" transform="translate(-13.825 -1.808)" fill="#ffba55"/>
    <path id="Path_1651" data-name="Path 1651" d="M226.369,90.112s-5.086,52.626,22.554,58.375l-3.154,19.2a1.433,1.433,0,0,0,1.414,1.665h.386c.777,0,1.012,1.684,3.781,1.21a1.437,1.437,0,0,1,1.692,1.408v3.977a1.436,1.436,0,0,0,1.246,1.421,11.12,11.12,0,0,0,1.4.111,1.427,1.427,0,0,1,1.4,1.649c-.015.093-.031.185-.049.275a1.43,1.43,0,0,0,1.212,1.678,3.738,3.738,0,0,0,1.566-.029,1.5,1.5,0,0,1,1.228.089,2.668,2.668,0,0,0,3.592-.488,1.4,1.4,0,0,0,.339-.928V90.112Z" transform="translate(-62.555 -1.808)" fill="#ffba55"/>
    <path id="Path_1652" data-name="Path 1652" d="M136.627,93.186l-.778,21.262c-.248,7.087-.509,14.174-.7,21.263q-.338,10.631-.478,21.266c-.045,3.545-.066,7.09-.006,10.634l.052,2.658c.035.885.058,1.771.108,2.655s.1,1.769.2,2.649c.033.442.107.879.179,1.316a8.273,8.273,0,0,0,.313,1.289,8.289,8.289,0,0,1-.34-1.284c-.082-.436-.165-.873-.207-1.314-.119-.88-.189-1.764-.261-2.649s-.111-1.771-.165-2.656l-.108-2.659c-.106-3.547-.124-7.094-.123-10.641.014-7.095.184-14.187.373-21.277.228-7.09.483-14.178.807-21.263l.518-10.627Z" transform="translate(-17.037 -3.334)" fill="#f73c4f"/>
    <path id="Path_1653" data-name="Path 1653" d="M150.851,93.186l-.745,9.825c-.232,3.275-.467,6.55-.64,9.827q-.293,4.914-.4,9.835l-.019,2.46c-.007.82.034,1.639.047,2.459-.005.822.087,1.636.128,2.455a10.573,10.573,0,0,0,.133,1.222l.165,1.221a48.743,48.743,0,0,1-.809-9.819c0-3.289.132-6.575.292-9.858.211-3.28.44-6.559.748-9.831S150.412,96.442,150.851,93.186Z" transform="translate(-24.186 -3.334)" fill="#f73c4f"/>
    <path id="Path_1654" data-name="Path 1654" d="M150.182,224c-.239-3.006-.4-6.016-.539-9.028s-.21-6.026-.279-9.04c-.024-3.015-.045-6.031.039-9.047a60.344,60.344,0,0,1,.779-9.01q-.274,2.246-.333,4.5c-.065,1.5-.078,3.009-.092,4.514q-.015,4.516.067,9.034c.03,3.012.112,6.023.172,9.036Z" transform="translate(-24.497 -50.343)" fill="#f73c4f"/>
    <path id="Path_1655" data-name="Path 1655" d="M169.554,95.381q-.216,4.179-.384,8.359l-.357,8.359c-.218,5.573-.432,11.146-.548,16.722-.152,5.574-.219,11.151-.154,16.725.029,2.787.1,5.574.28,8.355a37.564,37.564,0,0,0,1.163,8.258,37.664,37.664,0,0,1-1.388-8.242c-.225-2.784-.337-5.574-.409-8.364-.138-5.581-.067-11.164.049-16.743.154-5.578.361-11.155.656-16.727l.485-8.355Q169.231,99.553,169.554,95.381Z" transform="translate(-33.601 -4.424)" fill="#f73c4f"/>
    <path id="Path_1656" data-name="Path 1656" d="M182.389,95.381l-.054,7.686-.1,7.685-.278,15.369-.385,15.366-.23,7.682-.278,7.681.053-7.686.1-7.685.279-15.369.385-15.366.23-7.683Z" transform="translate(-40.244 -4.424)" fill="#f73c4f"/>
    <path id="Path_1657" data-name="Path 1657" d="M190.284,98.016l.491,8.841.376,8.846c.223,5.9.36,11.8.471,17.7.062,5.9.08,11.808-.049,17.712a140.844,140.844,0,0,1-1.288,17.657l.244-2.2c.083-.733.171-1.465.2-2.2.08-1.473.216-2.942.249-4.417.05-1.474.124-2.947.159-4.421l.079-4.424q.084-8.848-.056-17.7c-.072-5.9-.216-11.8-.363-17.7l-.248-8.849Z" transform="translate(-44.823 -5.732)" fill="#f73c4f"/>
    <path id="Path_1658" data-name="Path 1658" d="M199.945,98.016l.442,9.2.331,9.2c.2,6.137.306,12.277.39,18.417.053,6.14.045,12.283-.09,18.423-.045,1.535-.07,3.07-.132,4.6l-.192,4.6-.31,4.6c-.13,1.53-.294,3.057-.439,4.585.108-1.532.235-3.061.327-4.592l.2-4.6.126-4.6c.041-1.534.045-3.068.069-4.6.062-6.137.073-12.275-.016-18.412-.046-6.138-.16-12.275-.283-18.413Z" transform="translate(-49.619 -5.732)" fill="#f73c4f"/>
    <path id="Path_1659" data-name="Path 1659" d="M207.41,100.212l.548,7.368.481,7.373c.308,4.916.567,9.835.824,14.754.221,4.921.449,9.842.586,14.767.118,4.923.284,9.856-.007,14.777l.044-1.846c.01-.615-.012-1.231-.017-1.846-.007-1.231-.057-2.461-.1-3.691q-.108-3.691-.278-7.38-.316-7.379-.692-14.757l-.717-14.757-.352-7.379Z" transform="translate(-53.325 -6.822)" fill="#f73c4f"/>
    <path id="Path_1660" data-name="Path 1660" d="M212.425,245.108c.048-1.435.123-2.864.184-4.294l.171-4.287c.047-1.428.073-2.856.068-4.283-.014-.712-.027-1.426-.092-2.135a10.613,10.613,0,0,0-.332-2.11,13.669,13.669,0,0,1,.778,4.233c.089,1.437.075,2.875.038,4.311-.055,1.435-.14,2.868-.279,4.3S212.662,243.692,212.425,245.108Z" transform="translate(-55.815 -70.264)" fill="#f73c4f"/>
    <path id="Path_1661" data-name="Path 1661" d="M178.866,242.884c0-1.42.045-2.838.1-4.254s.136-2.832.223-4.246.2-2.828.329-4.239.266-2.823.453-4.231c0,1.421-.045,2.838-.1,4.254s-.137,2.832-.223,4.246-.2,2.828-.33,4.239S179.053,241.476,178.866,242.884Z" transform="translate(-39.154 -69.229)" fill="#f73c4f"/>
    <path id="Path_1662" data-name="Path 1662" d="M159.738,111.19l-.54,13.377c-.169,4.459-.336,8.918-.44,13.378-.146,4.459-.212,8.92-.233,13.38-.024,2.23.009,4.46.043,6.69l.092,3.344.194,3.341-.306-3.334-.2-3.343c-.081-2.231-.153-4.464-.173-6.7-.052-4.465.018-8.931.128-13.394.143-4.462.3-8.924.548-13.381l.4-6.684Z" transform="translate(-28.871 -12.273)" fill="#f73c4f"/>
    <path id="Path_1663" data-name="Path 1663" d="M233.319,95.381c.052,2.563.228,5.122.461,7.673s.518,5.1.884,7.63a107.969,107.969,0,0,0,3.176,15.005c.723,2.452,1.552,4.872,2.516,7.238a53.24,53.24,0,0,0,3.413,6.85,33.022,33.022,0,0,0,4.581,6.116,25.9,25.9,0,0,0,5.976,4.767,28.94,28.94,0,0,1-10.859-10.7,59.161,59.161,0,0,1-6.068-14.143,103.11,103.11,0,0,1-3.083-15.086,114.619,114.619,0,0,1-1-15.351Z" transform="translate(-66.188 -4.424)" fill="#f73c4f"/>
    <path id="Path_1664" data-name="Path 1664" d="M271.084,227.368c.072-1.313.193-2.62.323-3.926s.284-2.609.444-3.911.343-2.6.55-3.9.412-2.592.673-3.882c-.071,1.313-.193,2.62-.322,3.926s-.284,2.609-.445,3.911-.343,2.6-.551,3.9S271.344,226.078,271.084,227.368Z" transform="translate(-84.937 -62.198)" fill="#f73c4f"/>
    <path id="Path_1665" data-name="Path 1665" d="M281.616,228.487c-.021-1.4.008-2.8.045-4.193s.1-2.792.167-4.187.159-2.789.274-4.181.229-2.785.4-4.175c.022,1.4-.008,2.8-.044,4.193s-.1,2.792-.168,4.187-.159,2.789-.275,4.181S281.785,227.1,281.616,228.487Z" transform="translate(-90.163 -62.198)" fill="#f73c4f"/>
    <path id="Path_1666" data-name="Path 1666" d="M289.3,234.109c-.1-2.156-.14-4.312-.176-6.468s-.034-4.312-.054-6.468c.018-2.156.016-4.312.053-6.468s.081-4.312.177-6.468c.1,2.156.14,4.312.177,6.468s.035,4.312.053,6.468c-.019,2.156-.016,4.312-.054,6.468S289.4,231.953,289.3,234.109Z" transform="translate(-93.867 -60.454)" fill="#f73c4f"/>
    <path id="Path_1667" data-name="Path 1667" d="M296.766,237.042c-.095-2.108-.139-4.215-.176-6.323s-.034-4.215-.054-6.323c.018-2.108.016-4.215.053-6.323s.081-4.215.177-6.323c.1,2.107.14,4.215.177,6.323s.035,4.215.053,6.323c-.019,2.108-.016,4.215-.054,6.323S296.861,234.934,296.766,237.042Z" transform="translate(-97.573 -62.198)" fill="#f73c4f"/>
    <path id="Path_1668" data-name="Path 1668" d="M245.6,98.016c.022,2.351.171,4.7.373,7.038s.46,4.673.79,7a108.158,108.158,0,0,0,2.82,13.781c.615,2.263,1.329,4.5,2.121,6.7s1.728,4.358,2.714,6.485a61.672,61.672,0,0,0,3.389,6.16,52.473,52.473,0,0,0,4.155,5.682,52.6,52.6,0,0,1-4.344-5.559,61.217,61.217,0,0,1-3.518-6.127,76.089,76.089,0,0,1-4.96-13.222,102.358,102.358,0,0,1-2.726-13.856q-.437-3.5-.664-7.029C245.619,102.721,245.545,100.367,245.6,98.016Z" transform="translate(-72.276 -5.732)" fill="#f73c4f"/>
    <path id="Path_1669" data-name="Path 1669" d="M258.788,100.212c.086,2.131.242,4.258.427,6.381s.383,4.244.63,6.36c.5,4.231,1.1,8.451,1.935,12.625a97.819,97.819,0,0,0,3.157,12.36,54.858,54.858,0,0,0,2.3,5.948,38.751,38.751,0,0,0,3.045,5.608,44.836,44.836,0,0,1-5.684-11.441c-.715-2.015-1.316-4.069-1.849-6.137s-1.015-4.152-1.424-6.248q-1.2-6.295-1.834-12.676C259.076,108.743,258.815,104.478,258.788,100.212Z" transform="translate(-78.833 -6.822)" fill="#f73c4f"/>
    <path id="Path_1670" data-name="Path 1670" d="M281.2,98.016c-.313,2.147-.559,4.3-.778,6.459s-.423,4.315-.57,6.477c-.3,4.323-.485,8.656-.4,12.985a72.024,72.024,0,0,0,1.218,12.9,30.794,30.794,0,0,0,1.83,6.2,15.074,15.074,0,0,0,3.561,5.361,15.185,15.185,0,0,1-3.768-5.271,30.858,30.858,0,0,1-1.97-6.221,69.138,69.138,0,0,1-1.331-12.966c-.051-4.348.126-8.694.5-13.021q.286-3.245.7-6.476C280.491,102.3,280.812,100.151,281.2,98.016Z" transform="translate(-88.86 -5.732)" fill="#f73c4f"/>
    <path id="Path_1671" data-name="Path 1671" d="M269.48,95.381c-.07,1.46-.138,2.92-.177,4.38s-.089,2.92-.11,4.38c-.042,2.919-.053,5.839.062,8.755.079,2.916.277,5.829.636,8.721.181,1.445.413,2.885.73,4.307a22.548,22.548,0,0,0,1.292,4.173,28.524,28.524,0,0,1-2.373-8.432,80.486,80.486,0,0,1-.744-8.754c-.076-2.927-.073-5.856.046-8.78S269.148,98.288,269.48,95.381Z" transform="translate(-83.776 -4.424)" fill="#f73c4f"/>
    <path id="Path_1672" data-name="Path 1672" d="M292.063,104.164c-.133,2.7-.259,5.4-.354,8.107s-.179,5.4-.178,8.105c-.033,2.7.015,5.4.168,8.1.071,1.348.19,2.692.375,4.028a19.644,19.644,0,0,0,.873,3.946,27.144,27.144,0,0,1-1.6-7.948c-.227-2.7-.271-5.417-.275-8.125.037-2.709.119-5.417.286-8.119S291.741,106.852,292.063,104.164Z" transform="translate(-94.861 -8.784)" fill="#f73c4f"/>
    <path id="Path_1673" data-name="Path 1673" d="M267.791,200c-.187,0-.3-.005-.342-.007a1.382,1.382,0,0,1,.141-2.76c.377.017,8.958.29,16.334-8.648a1.382,1.382,0,1,1,2.131,1.759C278.506,199.494,269.655,200,267.791,200Z" transform="translate(-82.481 -50.447)" fill="#f65b2b"/>
    <path id="Path_1674" data-name="Path 1674" d="M221.034,90.116H124.516a.23.23,0,1,1,0-.46h96.518a.23.23,0,0,1,0,.46Z" transform="translate(-12.057 -1.581)" fill="#f73c4f"/>
    <path id="Path_1675" data-name="Path 1675" d="M124.516,90.082a.23.23,0,0,1-.23-.23V86.7a.23.23,0,1,1,.461,0v3.151a.23.23,0,0,1-.23.23Z" transform="translate(-12.057)" fill="#f73c4f"/>
    <path id="Path_1676" data-name="Path 1676" d="M316.2,90.082a.23.23,0,0,1-.23-.23V86.7a.23.23,0,0,1,.461,0v3.151a.23.23,0,0,1-.23.23Z" transform="translate(-107.22)" fill="#f73c4f"/>
    <path id="Path_1677" data-name="Path 1677" d="M480.984,155.423h25.833v4.1H480.984a1.765,1.765,0,0,1-1.765-1.765v-.572a1.765,1.765,0,0,1,1.765-1.765Z" transform="translate(-188.269 -34.233)" fill="#fff"/>
    <path id="Path_1678" data-name="Path 1678" d="M507,159.2a.372.372,0,0,1-.372.372H479.817c-1.024,0-1.856-1.124-1.856-2.507s.833-2.506,1.856-2.506h26.812a.372.372,0,0,1,.372.372v.293a.372.372,0,0,1-.372.372H479.817c-.6,0-1.089.66-1.089,1.471s.489,1.471,1.089,1.471h26.812a.372.372,0,0,1,.372.372Z" transform="translate(-187.644 -33.804)" fill="#f65b2b"/>
    <path id="Path_1679" data-name="Path 1679" d="M472.98,145.467h25.833v4.1H472.98a1.765,1.765,0,0,1-1.765-1.765v-.572a1.765,1.765,0,0,1,1.765-1.765Z" transform="translate(-184.296 -29.29)" fill="#fff"/>
    <path id="Path_1680" data-name="Path 1680" d="M499,149.245a.372.372,0,0,1-.372.372H471.812c-1.024,0-1.856-1.124-1.856-2.507s.833-2.506,1.856-2.506h26.812a.372.372,0,0,1,.372.372v.292a.372.372,0,0,1-.372.372H471.812c-.6,0-1.089.66-1.089,1.471s.489,1.471,1.089,1.471h26.812a.372.372,0,0,1,.372.372Z" transform="translate(-183.67 -28.861)" fill="#ffba55"/>
    <path id="Path_1681" data-name="Path 1681" d="M489.364,135.512H515.2v4.1H489.364a1.765,1.765,0,0,1-1.765-1.765v-.572a1.765,1.765,0,0,1,1.765-1.765Z" transform="translate(-192.43 -24.348)" fill="#fff"/>
    <path id="Path_1682" data-name="Path 1682" d="M515.38,139.289a.372.372,0,0,1-.372.372H488.2c-1.024,0-1.856-1.124-1.856-2.507s.833-2.506,1.856-2.506h26.812a.372.372,0,0,1,.372.372v.293a.372.372,0,0,1-.372.372H488.2c-.6,0-1.089.66-1.089,1.471s.489,1.471,1.089,1.471h26.812a.372.372,0,0,1,.372.372Z" transform="translate(-191.805 -23.918)" fill="#f65b2b"/>
    <path id="Path_1683" data-name="Path 1683" d="M390.011,166.178h3.837v8.04a.736.736,0,0,1-.736.736h-2.366a.736.736,0,0,1-.736-.736Z" transform="translate(-143.98 -39.572)" fill="#935b50"/>
    <path id="Path_1684" data-name="Path 1684" d="M517.3,166.178h3.837v8.04a.736.736,0,0,1-.736.736h-2.366a.736.736,0,0,1-.736-.736Z" transform="translate(-207.176 -39.572)" fill="#935b50"/>
    <path id="Path_1685" data-name="Path 1685" d="M460.428,166.189H375.46a.86.86,0,0,1,0-1.721h84.968a.86.86,0,0,1,0,1.721Z" transform="translate(-136.329 -38.724)" fill="#d6694b"/>
    <line id="Line_18" data-name="Line 18" x1="3.562" transform="translate(265.249 123.872)" fill="none"/>
    <line id="Line_19" data-name="Line 19" x1="3.562" transform="translate(265.249 122.151)" fill="none"/>
    <line id="Line_20" data-name="Line 20" x1="3.562" transform="translate(265.249 106.664)" fill="none"/>
    <line id="Line_21" data-name="Line 21" x1="3.562" transform="translate(265.249 104.944)" fill="none"/>
    <path id="Path_1686" data-name="Path 1686" d="M515.112,125.5h-5.2l-1.752-9.209h8.7Z" transform="translate(-202.637 -14.806)" fill="#e19974"/>
    <path id="Path_1687" data-name="Path 1687" d="M516.664,117.343l.2-1.051h-8.7l.2,1.051Z" transform="translate(-202.637 -14.806)" fill="#d6694b"/>
    <rect id="Rectangle_532" data-name="Rectangle 532" width="1.554" height="1.554" transform="translate(307.691 106.009) rotate(45)" fill="#d6694b"/>
    <rect id="Rectangle_533" data-name="Rectangle 533" width="1.554" height="1.554" transform="translate(309.888 106.009) rotate(45)" fill="#d6694b"/>
    <rect id="Rectangle_534" data-name="Rectangle 534" width="1.554" height="1.554" transform="translate(312.06 106.009) rotate(45)" fill="#d6694b"/>
    <path id="Path_1688" data-name="Path 1688" d="M518.512,100.9s.457,6.451-2.22,7.818C516.292,108.719,515.365,106.274,518.512,100.9Z" transform="translate(-206.611 -7.164)" fill="#558031"/>
    <path id="Path_1689" data-name="Path 1689" d="M503.674,106.4a9.438,9.438,0,0,1,6.417,5.047S505.276,109.816,503.674,106.4Z" transform="translate(-200.41 -9.896)" fill="#849f4c"/>
    <path id="Path_1690" data-name="Path 1690" d="M506.758,119.831s2.227-3.331,4.864-3.4C511.622,116.428,511.225,119.11,506.758,119.831Z" transform="translate(-201.941 -14.873)" fill="#a6b862"/>
    <path id="Path_1691" data-name="Path 1691" d="M512.213,102.727a7.535,7.535,0,0,1,2.117,6.9S512.618,107.812,512.213,102.727Z" transform="translate(-204.65 -8.071)" fill="#849f4c"/>
    <path id="Path_1692" data-name="Path 1692" d="M516.417,111.506s1.086-3.974,6.573-4.993C522.99,106.513,521.755,110.131,516.417,111.506Z" transform="translate(-206.737 -9.951)" fill="#a6b862"/>
    <path id="Path_1693" data-name="Path 1693" d="M524.444,113.84a8.824,8.824,0,0,0-8.027,1.039S521.522,115.492,524.444,113.84Z" transform="translate(-206.737 -13.324)" fill="#849f4c"/>
    <path id="Path_1694" data-name="Path 1694" d="M524.406,119.393s-2.022-3.238-7.989-2.98Z" transform="translate(-206.737 -14.858)" fill="#558031"/>
    <path id="Path_1695" data-name="Path 1695" d="M499.2,114.606s5.5-2.039,8.744.427C507.939,115.033,504.858,116.73,499.2,114.606Z" transform="translate(-198.187 -13.575)" fill="#558031"/>
    <path id="Path_1696" data-name="Path 1696" d="M508.15,103.663s4.906,3.47,4.2,6.431C512.352,110.094,508.949,107.364,508.15,103.663Z" transform="translate(-202.632 -8.536)" fill="#558031"/>
    <path id="Path_1697" data-name="Path 1697" d="M520.862,119.882s-4.045-.691-4.444-3.454A5.537,5.537,0,0,1,520.862,119.882Z" transform="translate(-206.737 -14.873)" fill="#849f4c"/>
    <path id="Path_1698" data-name="Path 1698" d="M368.482,132.118s7.067,5.209,9.378,4.612" transform="translate(-133.292 -22.663)" fill="none"/>
    <line id="Line_22" data-name="Line 22" x2="1.087" y2="14.896" transform="translate(243.052 99.551)" fill="none"/>
    <path id="Path_1699" data-name="Path 1699" d="M395.327,133.479s1.171-6.608,7.3-9.471" transform="translate(-146.62 -18.637)" fill="none"/>
    <path id="Path_1700" data-name="Path 1700" d="M389.213,139.256c-.366-.717-2.332-.718-3.588.163a3.439,3.439,0,0,0-1.209,1.587c-.214.551-.556,1.432-.081,2.035a1.784,1.784,0,0,0,1.975.366A9.63,9.63,0,0,0,388,141.739C388.732,140.817,389.508,139.834,389.213,139.256Z" transform="translate(-141.043 -25.949)" fill="#5e7c24"/>
    <path id="Path_1701" data-name="Path 1701" d="M397.267,138.861c-.137.36.135.772.645,1.546a7.43,7.43,0,0,0,1.774,1.872,2.116,2.116,0,0,0,2.5.285,2.025,2.025,0,0,0,.927-1.709,2.581,2.581,0,0,0-1.25-1.953C400.214,137.707,397.6,137.991,397.267,138.861Z" transform="translate(-147.565 -25.635)" fill="#5e7c24"/>
    <path id="Path_1702" data-name="Path 1702" d="M406.871,125.108c.12-.2.432-.1,1.129-.2a12.986,12.986,0,0,0,1.734-.529,6.671,6.671,0,0,1,1.492-.366c.211,0,1.406.006,1.814.814.428.846-.364,1.864-.4,1.913a3,3,0,0,1-2.5.9,3.859,3.859,0,0,1-2.7-1.3C407.34,126.221,406.662,125.464,406.871,125.108Z" transform="translate(-152.331 -18.637)" fill="#5e7c24"/>
    <path id="Path_1703" data-name="Path 1703" d="M384.818,111.612c-.426-.214-.177-1.576-.04-2.32a13.808,13.808,0,0,1,.766-2.32c.706-1.859.867-2.059,1.129-2.157a1.687,1.687,0,0,1,1.855.855c.466.9-.249,2.044-1.008,3.256C386.79,110.09,385.371,111.89,384.818,111.612Z" transform="translate(-141.284 -9.088)" fill="#5e7c24"/>
    <path id="Path_1704" data-name="Path 1704" d="M379.684,122.411c.313-.509-.263-1.505-.847-2.035a3.756,3.756,0,0,0-1.855-.773c-.97-.234-2.037-.491-2.338-.041-.287.429.275,1.272.4,1.465a3.564,3.564,0,0,0,1.653,1.262C377.562,122.646,379.28,123.069,379.684,122.411Z" transform="translate(-136.311 -16.307)" fill="#c4ce6e"/>
    <path id="Path_1705" data-name="Path 1705" d="M379.43,130.548c.011-.405-.574-.489-1.774-1.465-.952-.775-.979-1.044-1.532-1.221-.846-.271-1.951-.013-2.137.529-.046.133-.039.291.685,1.465A5.453,5.453,0,0,0,375.8,131.4a2.649,2.649,0,0,0,2.016.2C378.323,131.486,379.415,131.1,379.43,130.548Z" transform="translate(-136.018 -20.496)" fill="#5e7c24"/>
    <path id="Path_1706" data-name="Path 1706" d="M385.528,120.221c-.4-.447,0-1.529.487-2.151a3.771,3.771,0,0,1,1.7-1.084c.915-.4,1.923-.837,2.3-.446.356.373-.054,1.3-.148,1.513a3.581,3.581,0,0,1-1.413,1.53C387.659,120.084,386.038,120.8,385.528,120.221Z" transform="translate(-141.675 -14.853)" fill="#5e7c24"/>
    <path id="Path_1707" data-name="Path 1707" d="M386.261,128.91c-.08-.4.482-.582,1.5-1.751.806-.928.787-1.2,1.3-1.469.787-.414,1.919-.351,2.2.15.067.123.088.28-.426,1.562a5.477,5.477,0,0,1-.849,1.719,2.653,2.653,0,0,1-1.951.55C387.511,129.642,386.369,129.448,386.261,128.91Z" transform="translate(-142.115 -19.336)" fill="#5e7c24"/>
    <path id="Path_1708" data-name="Path 1708" d="M368.349,135.236c-.057-.442-.784-.685-1.653-.977a3.287,3.287,0,0,0-2.137-.244c-.129.04-1.274.4-1.371,1.262-.087.774.738,1.339.806,1.384a2.439,2.439,0,0,0,1.895.2C367.023,136.646,368.432,135.886,368.349,135.236Z" transform="translate(-130.661 -23.556)" fill="#5e7c24"/>
    <path id="Path_1709" data-name="Path 1709" d="M375.616,140.445c-.607-.433-1.753.3-2.3.651a4.82,4.82,0,0,0-1.411,1.384c-.42.63-.82,1.23-.6,1.75.309.747,1.642.736,1.814.732a2.9,2.9,0,0,0,1.975-.9,3.084,3.084,0,0,0,.766-1.546C375.931,142.182,376.215,140.873,375.616,140.445Z" transform="translate(-134.662 -26.731)" fill="#c4ce6e"/>
    <path id="Path_1710" data-name="Path 1710" d="M369.408,127.318c-.342-.5-.222-.849-.363-1.709-.224-1.368-.7-1.543-.524-2.238.139-.547.61-1.131,1.129-1.139.726-.012,1.193,1.11,1.29,1.343a4.759,4.759,0,0,1,0,2.849c-.145.825-.256,1.416-.6,1.506S369.6,127.592,369.408,127.318Z" transform="translate(-133.292 -17.754)" fill="#8b9d36"/>
    <path id="Path_1711" data-name="Path 1711" d="M400.968,131.642c.108-.3.679-.351,1.371-.407a3.153,3.153,0,0,1,2.137.285c.1.063,1.106.741.927,1.546a1.557,1.557,0,0,1-1.492.977c-.618.018-1.038-.331-1.814-.977C401.485,132.558,400.835,132.018,400.968,131.642Z" transform="translate(-149.412 -22.201)" fill="#8b9d36"/>
    <path id="Path_1712" data-name="Path 1712" d="M401.906,123.391c-.155-.035-.165-.251-.363-.855-.443-1.348-.789-1.47-.726-2.035.07-.625.586-1.29,1.048-1.262.5.031.805.878.927,1.221a2.64,2.64,0,0,1,.161,1.262C402.841,122.6,402.243,123.468,401.906,123.391Z" transform="translate(-149.342 -16.268)" fill="#5e7c24"/>
    <path id="Path_1713" data-name="Path 1713" d="M379.708,112.356c-.235.334-1.571-.061-2.459-.855-.227-.2-1.231-1.1-.967-1.953a1.007,1.007,0,0,1,.806-.732c.377-.009.622.373,1.25,1.3C379.63,112.028,379.812,112.21,379.708,112.356Z" transform="translate(-137.143 -11.094)" fill="#8b9d36"/>
    <path id="Path_1714" data-name="Path 1714" d="M395.156,127.1c-.677.184-1.562-1.245-1.774-1.587a5.25,5.25,0,0,1-.806-2.93c.029-.647.082-1.827.766-2.116.656-.277,1.542.411,1.975.936a4.517,4.517,0,0,1,.6,3.5C395.834,125.783,395.715,126.952,395.156,127.1Z" transform="translate(-145.253 -16.849)" fill="#c4ce6e"/>
    <path id="Path_1715" data-name="Path 1715" d="M389.226,152.872h-6.648l-2.138-11.346a.451.451,0,0,1,.44-.537h10.045a.451.451,0,0,1,.44.537Z" transform="translate(-139.225 -27.067)" fill="#e19974"/>
    <path id="Path_1716" data-name="Path 1716" d="M391.211,142.346l.155-.82a.451.451,0,0,0-.44-.537H380.88a.451.451,0,0,0-.44.537l.155.82Z" transform="translate(-139.225 -27.067)" fill="#d6694b"/>
    <path id="Path_1717" data-name="Path 1717" d="M384.366,155.411l-1.4-1.417,1.4-1.417,1.4,1.417Z" transform="translate(-140.481 -32.819)" fill="#d6694b"/>
    <path id="Path_1718" data-name="Path 1718" d="M389.943,155.411l-1.4-1.417,1.4-1.417,1.4,1.417Z" transform="translate(-143.25 -32.819)" fill="#d6694b"/>
    <path id="Path_1719" data-name="Path 1719" d="M395.457,155.411l-1.4-1.417,1.4-1.417,1.4,1.417Z" transform="translate(-145.987 -32.819)" fill="#d6694b"/>
    <path id="Path_1720" data-name="Path 1720" d="M.364,0h22.28V3.5H.364A.364.364,0,0,1,0,3.139V.364A.364.364,0,0,1,.364,0Z" transform="translate(287.978 103.302) rotate(97.76)" fill="#7ca1b1"/>
    <line id="Line_23" data-name="Line 23" x1="3.471" y1="0.473" transform="translate(284.273 104.54)" fill="none"/>
    <line id="Line_24" data-name="Line 24" x1="3.471" y1="0.473" transform="translate(284.044 106.217)" fill="none"/>
    <line id="Line_25" data-name="Line 25" x1="3.471" y1="0.473" transform="translate(281.988 121.309)" fill="none"/>
    <line id="Line_26" data-name="Line 26" x1="3.471" y1="0.473" transform="translate(281.759 122.986)" fill="none"/>
    <path id="Path_1721" data-name="Path 1721" d="M447.532,119.852v22.28h-3.5v-22.28a.364.364,0,0,1,.364-.364h2.775A.364.364,0,0,1,447.532,119.852Z" transform="translate(-170.798 -16.392)" fill="#f65b2b"/>
    <rect id="Rectangle_535" data-name="Rectangle 535" width="3.503" height="0.423" transform="translate(273.23 123.802)" fill="#fff"/>
    <rect id="Rectangle_536" data-name="Rectangle 536" width="3.503" height="0.423" transform="translate(273.23 122.109)" fill="#fff"/>
    <rect id="Rectangle_537" data-name="Rectangle 537" width="3.503" height="0.423" transform="translate(273.23 106.878)" fill="#fff"/>
    <rect id="Rectangle_538" data-name="Rectangle 538" width="3.503" height="0.423" transform="translate(273.23 105.186)" fill="#fff"/>
    <path id="Path_1722" data-name="Path 1722" d="M450.978,143.132V121.868a.364.364,0,0,1,.364-.364h3.993a.364.364,0,0,1,.364.364v21.264Z" transform="translate(-174.248 -17.393)" fill="#ffba55"/>
    <rect id="Rectangle_539" data-name="Rectangle 539" width="4.722" height="0.423" transform="translate(276.73 123.078)" fill="#fff"/>
    <rect id="Rectangle_540" data-name="Rectangle 540" width="10.103" height="3.046" transform="translate(280.613 105.33) rotate(90)" fill="#fff"/>
    <path id="Path_1723" data-name="Path 1723" d="M427.707,119.852v22.28h3.5v-22.28a.364.364,0,0,0-.364-.364h-2.775A.364.364,0,0,0,427.707,119.852Z" transform="translate(-162.695 -16.392)" fill="#ffba55"/>
    <rect id="Rectangle_541" data-name="Rectangle 541" width="3.503" height="0.423" transform="translate(265.012 123.802)" fill="#fff"/>
    <rect id="Rectangle_542" data-name="Rectangle 542" width="3.503" height="0.423" transform="translate(265.012 122.109)" fill="#fff"/>
    <rect id="Rectangle_543" data-name="Rectangle 543" width="3.503" height="0.423" transform="translate(265.012 106.878)" fill="#fff"/>
    <rect id="Rectangle_544" data-name="Rectangle 544" width="3.503" height="0.423" transform="translate(265.012 105.186)" fill="#fff"/>
    <path id="Path_1724" data-name="Path 1724" d="M423.061,143.132V121.868a.364.364,0,0,0-.364-.364H418.7a.364.364,0,0,0-.364.364v21.264Z" transform="translate(-158.044 -17.393)" fill="#f65b2b"/>
    <rect id="Rectangle_545" data-name="Rectangle 545" width="4.722" height="0.423" transform="translate(260.295 123.078)" fill="#fff"/>
    <rect id="Rectangle_546" data-name="Rectangle 546" width="10.103" height="3.046" transform="translate(264.178 105.33) rotate(90)" fill="#fff"/>
    <path id="Path_1725" data-name="Path 1725" d="M.364,0H21.628V4.722H.364A.364.364,0,0,1,0,4.358V.364A.364.364,0,0,1,.364,0Z" transform="translate(273.234 104.111) rotate(90)" fill="#7ca1b1"/>
    <line id="Line_27" data-name="Line 27" x2="4.722" transform="translate(268.512 123.29)" fill="none"/>
    <rect id="Rectangle_547" data-name="Rectangle 547" width="10.103" height="3.046" transform="translate(272.396 105.329) rotate(90)" fill="#fff"/>
    <line id="Line_28" data-name="Line 28" x2="251.767" transform="translate(100 276.892)" fill="none"/>
  </g>
</svg>
