<svg id="app-store" xmlns="http://www.w3.org/2000/svg" width="157.77" height="52.738" viewBox="0 0 157.77 52.738">
  <path id="Path_1254" data-name="Path 1254" d="M145.206,0H12.571c-.483,0-.961,0-1.443,0-.4,0-.8.01-1.212.017A17.423,17.423,0,0,0,7.274.252a8.787,8.787,0,0,0-2.506.827A8.488,8.488,0,0,0,2.634,2.633,8.251,8.251,0,0,0,1.08,4.77,8.7,8.7,0,0,0,.256,7.28,17.131,17.131,0,0,0,.02,9.919c-.012.4-.014.81-.02,1.214V41.608c.006.409.008.806.02,1.216a17.129,17.129,0,0,0,.236,2.639,8.685,8.685,0,0,0,.824,2.511A8.185,8.185,0,0,0,2.634,50.1a8.272,8.272,0,0,0,2.134,1.554,8.834,8.834,0,0,0,2.506.832,17.74,17.74,0,0,0,2.642.233c.407.009.808.014,1.212.014.482,0,.96,0,1.443,0H145.206c.474,0,.955,0,1.429,0,.4,0,.814-.005,1.216-.014a17.507,17.507,0,0,0,2.637-.233A8.971,8.971,0,0,0,153,51.656a8.276,8.276,0,0,0,2.132-1.554,8.432,8.432,0,0,0,1.558-2.128,8.707,8.707,0,0,0,.816-2.511,17.809,17.809,0,0,0,.245-2.639c.005-.41.005-.806.005-1.215.011-.479.011-.955.011-1.442V12.573c0-.483,0-.962-.011-1.439,0-.4,0-.81-.005-1.214a17.806,17.806,0,0,0-.245-2.64,8.725,8.725,0,0,0-.816-2.509A8.525,8.525,0,0,0,153,1.079a8.923,8.923,0,0,0-2.516-.827,17.2,17.2,0,0,0-2.637-.233c-.4-.006-.814-.014-1.216-.017-.474,0-.955,0-1.429,0Z" transform="translate(0 0)" fill="#fffbff"/>
  <path id="Path_1255" data-name="Path 1255" d="M10.856,51.305c-.4,0-.794-.005-1.192-.014A16.728,16.728,0,0,1,7.2,51.076a7.758,7.758,0,0,1-2.184-.723,7.127,7.127,0,0,1-1.842-1.34,7.015,7.015,0,0,1-1.346-1.841,7.544,7.544,0,0,1-.716-2.185,16.367,16.367,0,0,1-.219-2.472c-.008-.278-.019-1.2-.019-1.2V10.855s.012-.912.019-1.179a16.31,16.31,0,0,1,.218-2.468,7.588,7.588,0,0,1,.717-2.191A7.085,7.085,0,0,1,3.166,3.173,7.338,7.338,0,0,1,5.014,1.825a7.677,7.677,0,0,1,2.18-.717A16.594,16.594,0,0,1,9.667.891l1.19-.016H146.351l1.2.017a16.329,16.329,0,0,1,2.45.214,7.829,7.829,0,0,1,2.2.722,7.375,7.375,0,0,1,3.184,3.19,7.6,7.6,0,0,1,.706,2.174,17.135,17.135,0,0,1,.229,2.488c0,.373,0,.774,0,1.174.011.494.011.965.011,1.439V39.887c0,.479,0,.946-.011,1.418,0,.429,0,.822-.005,1.226a16.784,16.784,0,0,1-.225,2.444,7.567,7.567,0,0,1-.712,2.2A7.225,7.225,0,0,1,154.049,49a7.137,7.137,0,0,1-1.845,1.348,7.728,7.728,0,0,1-2.2.725,16.536,16.536,0,0,1-2.464.215q-.591.014-1.183.014l-1.429,0Z" transform="translate(0.278 0.279)" fill="#04030f"/>
  <path id="Path_1256" data-name="Path 1256" d="M29.9,23.724a6.785,6.785,0,0,1,3.231-5.693,6.945,6.945,0,0,0-5.472-2.958c-2.3-.242-4.534,1.378-5.708,1.378-1.2,0-3-1.354-4.947-1.314a7.288,7.288,0,0,0-6.132,3.74c-2.652,4.591-.674,11.338,1.866,15.049,1.271,1.817,2.756,3.847,4.7,3.775,1.9-.079,2.612-1.213,4.907-1.213,2.274,0,2.941,1.213,4.923,1.167,2.041-.033,3.326-1.825,4.553-3.659a15.029,15.029,0,0,0,2.082-4.24,6.556,6.556,0,0,1-4-6.031ZM26.152,12.633A6.68,6.68,0,0,0,27.68,7.847a6.8,6.8,0,0,0-4.4,2.275,6.357,6.357,0,0,0-1.568,4.609,5.62,5.62,0,0,0,4.438-2.1Zm26.561,20.65H46.472l-1.5,4.425H42.33l5.911-16.372h2.746L56.9,37.709H54.21Zm-5.594-2.042h4.947l-2.439-7.182h-.068Zm22.546.5c0,3.709-1.985,6.093-4.981,6.093a4.047,4.047,0,0,1-3.756-2.088H60.87v5.912H58.42V25.772h2.372v1.985h.045a4.234,4.234,0,0,1,3.8-2.11c3.03,0,5.027,2.395,5.027,6.094Zm-2.518,0c0-2.417-1.249-4.006-3.154-4.006-1.872,0-3.131,1.622-3.131,4.005,0,2.405,1.259,4.016,3.131,4.016,1.906,0,3.154-1.577,3.154-4.016Zm15.657,0c0,3.709-1.986,6.093-4.982,6.093a4.047,4.047,0,0,1-3.756-2.088h-.057v5.912h-2.45V25.772H73.93v1.985h.045a4.234,4.234,0,0,1,3.8-2.11c3.03,0,5.027,2.395,5.027,6.094Zm-2.519,0c0-2.417-1.249-4.006-3.155-4.006-1.872,0-3.131,1.622-3.131,4.005,0,2.405,1.259,4.016,3.131,4.016,1.906,0,3.155-1.577,3.155-4.016Zm11.2,1.406c.182,1.624,1.759,2.69,3.914,2.69,2.065,0,3.551-1.066,3.551-2.53,0-1.271-.9-2.032-3.018-2.553l-2.122-.511c-3.006-.726-4.4-2.132-4.4-4.414,0-2.825,2.462-4.765,5.956-4.765,3.461,0,5.833,1.94,5.912,4.765H98.8c-.148-1.634-1.5-2.62-3.472-2.62s-3.324,1-3.324,2.45c0,1.158.863,1.839,2.973,2.36l1.8.443c3.359.794,4.754,2.144,4.754,4.538,0,3.063-2.439,4.982-6.319,4.982-3.631,0-6.082-1.874-6.241-4.835Zm15.342-10.2v2.825h2.27v1.94h-2.27v6.581c0,1.022.454,1.5,1.452,1.5a7.657,7.657,0,0,0,.806-.057v1.929a6.729,6.729,0,0,1-1.361.113c-2.417,0-3.359-.908-3.359-3.223V27.712H102.63v-1.94h1.736V22.947Zm3.583,8.794c0-3.756,2.212-6.116,5.661-6.116s5.663,2.36,5.663,6.116-2.19,6.116-5.663,6.116S110.41,35.507,110.41,31.741Zm8.827,0c0-2.576-1.181-4.1-3.166-4.1s-3.166,1.532-3.166,4.1c0,2.587,1.181,4.1,3.166,4.1S119.238,34.328,119.238,31.741Zm4.517-5.969h2.337V27.8h.057a2.847,2.847,0,0,1,2.871-2.157,3.779,3.779,0,0,1,.839.091V28.03a3.425,3.425,0,0,0-1.1-.148,2.469,2.469,0,0,0-2.553,2.746v7.08h-2.45Zm17.4,8.431c-.33,2.167-2.44,3.654-5.14,3.654-3.473,0-5.628-2.327-5.628-6.059s2.167-6.172,5.525-6.172c3.3,0,5.379,2.269,5.379,5.888v.839h-8.431V32.5a3.109,3.109,0,0,0,3.211,3.381,2.7,2.7,0,0,0,2.757-1.679Zm-8.283-3.563h5.968a2.871,2.871,0,0,0-2.928-3.03,3.022,3.022,0,0,0-3.04,3.03ZM46.812,9.013a3.48,3.48,0,0,1,3.7,3.909c0,2.513-1.358,3.958-3.7,3.958H43.97V9.012Zm-1.62,6.754h1.483a2.473,2.473,0,0,0,2.594-2.829,2.48,2.48,0,0,0-2.594-2.813H45.192Zm6.7-1.858a2.812,2.812,0,1,1,5.6,0,2.813,2.813,0,1,1-5.6,0Zm4.394,0c0-1.287-.578-2.039-1.593-2.039s-1.591.753-1.591,2.039.573,2.044,1.591,2.044S56.288,15.2,56.288,13.909Zm8.648,2.971H63.721l-1.227-4.372H62.4l-1.222,4.372h-1.2l-1.636-5.937h1.188l1.064,4.53h.088l1.221-4.53h1.124l1.221,4.53h.093l1.058-4.53h1.172Zm3.006-5.937h1.128v.943h.088a1.777,1.777,0,0,1,1.772-1.058,1.931,1.931,0,0,1,2.055,2.208v3.843H71.813V13.33c0-.954-.415-1.429-1.281-1.429a1.362,1.362,0,0,0-1.418,1.5v3.473H67.943Zm6.909-2.318h1.172v8.254H74.852Zm2.8,5.284a2.813,2.813,0,1,1,5.6,0,2.813,2.813,0,1,1-5.6,0Zm4.394,0c0-1.287-.578-2.039-1.593-2.039s-1.591.753-1.591,2.039.573,2.044,1.591,2.044S82.046,15.2,82.046,13.909ZM84.486,15.2c0-1.069.8-1.685,2.208-1.772l1.608-.093v-.512c0-.627-.415-.981-1.215-.981-.654,0-1.107.24-1.237.66H84.715c.12-1.02,1.079-1.674,2.426-1.674,1.488,0,2.328.741,2.328,1.995v4.056H88.34v-.834h-.093a2,2,0,0,1-1.783.932A1.793,1.793,0,0,1,84.486,15.2Zm3.816-.507v-.5l-1.45.093c-.818.055-1.188.333-1.188.856s.464.845,1.1.845a1.4,1.4,0,0,0,1.537-1.3Zm2.706-.785c0-1.876.964-3.064,2.464-3.064a1.957,1.957,0,0,1,1.821,1.042h.088V8.625h1.172v8.254H95.43v-.938h-.093a2.06,2.06,0,0,1-1.864,1.036c-1.51,0-2.464-1.188-2.464-3.069Zm1.21,0c0,1.259.594,2.017,1.586,2.017s1.6-.769,1.6-2.012S94.786,11.9,93.8,11.9,92.219,12.66,92.219,13.909Zm9.181,0a2.812,2.812,0,1,1,5.6,0,2.813,2.813,0,1,1-5.6,0Zm4.394,0c0-1.287-.578-2.039-1.593-2.039s-1.591.753-1.591,2.039.573,2.044,1.591,2.044S105.794,15.2,105.794,13.909Zm2.777-2.966H109.7v.943h.088a1.777,1.777,0,0,1,1.772-1.058,1.931,1.931,0,0,1,2.055,2.208v3.843h-1.172V13.33c0-.954-.415-1.429-1.281-1.429a1.362,1.362,0,0,0-1.418,1.5v3.473h-1.172Zm11.663-1.478V10.97h1.286v.987h-1.286v3.053c0,.622.256.894.839.894a3.912,3.912,0,0,0,.447-.027v.976a3.844,3.844,0,0,1-.637.06c-1.3,0-1.822-.458-1.822-1.6V11.957h-.942V10.97h.942v-1.5Zm2.887-.84h1.161V11.9h.093a1.827,1.827,0,0,1,1.81-1.064,1.956,1.956,0,0,1,2.045,2.213v3.833h-1.173V13.336c0-.948-.442-1.429-1.27-1.429a1.387,1.387,0,0,0-1.495,1.505v3.467h-1.172Zm11.941,6.651a2.41,2.41,0,0,1-2.573,1.718,2.7,2.7,0,0,1-2.742-3.064,2.738,2.738,0,0,1,2.737-3.1c1.652,0,2.648,1.129,2.648,2.993v.409H130.94V14.3a1.569,1.569,0,0,0,1.581,1.7,1.423,1.423,0,0,0,1.412-.72Zm-4.121-1.913h3a1.432,1.432,0,0,0-1.461-1.538,1.518,1.518,0,0,0-1.537,1.538Z" transform="translate(3.06 2.499)" fill="#fffbff"/>
</svg>
