<svg id="google-play" xmlns="http://www.w3.org/2000/svg" xmlns:xlink="http://www.w3.org/1999/xlink" width="103.586" height="30.742" viewBox="0 0 103.586 30.742">
  <defs>
    <linearGradient id="linear-gradient" x1="0.849" y1="0.31" x2="0.361" y2="0.799" gradientUnits="objectBoundingBox">
      <stop offset="0" stop-color="#00a0ff"/>
      <stop offset="0.007" stop-color="#00a1ff"/>
      <stop offset="0.26" stop-color="#00beff"/>
      <stop offset="0.512" stop-color="#00d2ff"/>
      <stop offset="0.76" stop-color="#00dfff"/>
      <stop offset="1" stop-color="#00e3ff"/>
    </linearGradient>
    <linearGradient id="linear-gradient-2" x1="0.97" y1="0.436" x2="-1.177" y2="0.436" gradientUnits="objectBoundingBox">
      <stop offset="0" stop-color="#ffe000"/>
      <stop offset="0.409" stop-color="#ffbd00"/>
      <stop offset="0.775" stop-color="orange"/>
      <stop offset="1" stop-color="#ff9c00"/>
    </linearGradient>
    <linearGradient id="linear-gradient-3" x1="0.761" y1="0.213" x2="-0.443" y2="1.411" gradientUnits="objectBoundingBox">
      <stop offset="0" stop-color="#ff3a44"/>
      <stop offset="1" stop-color="#c31162"/>
    </linearGradient>
    <linearGradient id="linear-gradient-4" x1="-0.17" y1="-0.275" x2="0.367" y2="0.26" gradientUnits="objectBoundingBox">
      <stop offset="0" stop-color="#32a071"/>
      <stop offset="0.068" stop-color="#2da771"/>
      <stop offset="0.476" stop-color="#15cf74"/>
      <stop offset="0.801" stop-color="#06e775"/>
      <stop offset="1" stop-color="#00f076"/>
    </linearGradient>
    <linearGradient id="linear-gradient-5" x1="0.624" y1="0.038" x2="-0.364" y2="1.027" gradientUnits="objectBoundingBox">
      <stop offset="0" stop-color="#cc2e36"/>
      <stop offset="1" stop-color="#9c0e4e"/>
    </linearGradient>
    <linearGradient id="linear-gradient-6" x1="5.233" y1="-7.998" x2="-1.121" y2="-1.634" gradientUnits="objectBoundingBox">
      <stop offset="0" stop-color="#008de0"/>
      <stop offset="0.007" stop-color="#008de0"/>
      <stop offset="0.26" stop-color="#00a7e0"/>
      <stop offset="0.512" stop-color="#00b8e0"/>
      <stop offset="0.76" stop-color="#00c4e0"/>
      <stop offset="1" stop-color="#00c7e0"/>
    </linearGradient>
    <linearGradient id="linear-gradient-7" x1="0.943" y1="-0.195" x2="-2.414" y2="-0.195" gradientUnits="objectBoundingBox">
      <stop offset="0" stop-color="#e0c500"/>
      <stop offset="0.409" stop-color="#e0a600"/>
      <stop offset="0.775" stop-color="#e09100"/>
      <stop offset="1" stop-color="#e08900"/>
    </linearGradient>
    <linearGradient id="linear-gradient-8" x1="0.944" y1="0.999" x2="-2.414" y2="0.999" gradientUnits="objectBoundingBox">
      <stop offset="0" stop-color="#ffe840"/>
      <stop offset="0.409" stop-color="#ffce40"/>
      <stop offset="0.775" stop-color="#ffbc40"/>
      <stop offset="1" stop-color="#ffb540"/>
    </linearGradient>
    <linearGradient id="linear-gradient-9" x1="5.219" y1="0.865" x2="-1.113" y2="6.933" gradientUnits="objectBoundingBox">
      <stop offset="0" stop-color="#40b8ff"/>
      <stop offset="0.007" stop-color="#40b9ff"/>
      <stop offset="0.26" stop-color="#40ceff"/>
      <stop offset="0.512" stop-color="#40ddff"/>
      <stop offset="0.76" stop-color="#40e7ff"/>
      <stop offset="1" stop-color="#40eaff"/>
    </linearGradient>
    <linearGradient id="linear-gradient-10" x1="-0.137" y1="-0.184" x2="0.304" y2="0.257" gradientUnits="objectBoundingBox">
      <stop offset="0" stop-color="#65b895"/>
      <stop offset="0.068" stop-color="#62bd95"/>
      <stop offset="0.476" stop-color="#50db97"/>
      <stop offset="0.801" stop-color="#44ed98"/>
      <stop offset="1" stop-color="#40f498"/>
    </linearGradient>
  </defs>
  <path id="Path_1257" data-name="Path 1257" d="M99.749,30.742H3.837A3.851,3.851,0,0,1,0,26.9V3.843A3.851,3.851,0,0,1,3.837,0H99.749a3.851,3.851,0,0,1,3.837,3.843V26.9a3.851,3.851,0,0,1-3.837,3.843" fill="#04030f"/>
  <path id="Path_1258" data-name="Path 1258" d="M99.749,0H3.837A3.851,3.851,0,0,0,0,3.843V26.9a3.851,3.851,0,0,0,3.837,3.843H99.749a3.851,3.851,0,0,0,3.837-3.843V3.843A3.851,3.851,0,0,0,99.749,0m0,.615a3.229,3.229,0,0,1,3.223,3.228V26.9a3.229,3.229,0,0,1-3.223,3.228H3.837A3.229,3.229,0,0,1,.614,26.9V3.843A3.229,3.229,0,0,1,3.837.615H99.749" fill="#fffbff"/>
  <path id="Path_1259" data-name="Path 1259" d="M923.28,155.36a2.083,2.083,0,0,1-.572,1.539,2.23,2.23,0,0,1-1.691.682,2.409,2.409,0,1,1,0-4.818,2.372,2.372,0,0,1,.945.193,1.9,1.9,0,0,1,.72.515l-.4.406a1.553,1.553,0,0,0-1.26-.547A1.842,1.842,0,1,0,922.3,156.5a1.452,1.452,0,0,0,.386-.934h-1.672v-.554h2.231a1.972,1.972,0,0,1,.032.348" transform="translate(-886.895 -147.487)" fill="#fffbff"/>
  <path id="Path_1260" data-name="Path 1260" d="M921.136,153.212h-.077a2.005,2.005,0,0,1-.549,1.485h0a2.154,2.154,0,0,1-1.636.659,2.332,2.332,0,1,1,0-4.664,2.3,2.3,0,0,1,.915.187,1.824,1.824,0,0,1,.692.494l.059-.05-.054-.054-.4.406.054.054.059-.049a1.632,1.632,0,0,0-1.319-.575,1.919,1.919,0,1,0,1.34,3.3,1.53,1.53,0,0,0,.408-.982l.007-.083H918.95v-.4H921.1v-.077l-.076.014a1.879,1.879,0,0,1,.031.335h.153a2.031,2.031,0,0,0-.033-.362l-.011-.063H918.8v.708h1.749v-.077l-.076-.007a1.377,1.377,0,0,1-.364.886,1.755,1.755,0,0,1-2.436,0,1.856,1.856,0,0,1,0-2.549,1.671,1.671,0,0,1,1.2-.49,1.476,1.476,0,0,1,1.2.52l.054.064.464-.465.05-.05-.045-.054a1.972,1.972,0,0,0-.748-.536,2.447,2.447,0,0,0-.975-.2,2.486,2.486,0,1,0,0,4.971,2.309,2.309,0,0,0,1.747-.706l-.055-.053.054.054a2.162,2.162,0,0,0,.594-1.594h-.077m3.537-1.926h-2.1v1.462h1.891v.554h-1.891v1.462h2.1v.566h-2.688v-4.611h2.688v.567" transform="translate(-884.752 -145.339)" fill="#fffbff"/>
  <path id="Path_1261" data-name="Path 1261" d="M1078.511,154.173V154.1h-2.173v1.616h1.891v.4h-1.891v1.616h2.1v.413H1075.9v-4.458h2.534v.49h.077v0h.077v-.643h-2.841v4.765h2.841v-.72h-2.1v-1.308h1.891v-.708h-1.891V154.25h2.1v-.077h-.077m2.495,4.045h-.592v-4.045h-1.286v-.566h3.164v.566h-1.286v4.045" transform="translate(-1038.59 -148.227)" fill="#fffbff"/>
  <path id="Path_1262" data-name="Path 1262" d="M1173.377,158.218v-.077h-.515V154.1h-1.286v-.413h3.01v.413H1173.3v4.122h.077v0h.077V154.25h1.286v-.72h-3.317v.72h1.286v4.045h.745v-.077h-.077m3.575,0v-4.611h.591v4.611h-.591" transform="translate(-1130.962 -148.227)" fill="#fffbff"/>
  <path id="Path_1263" data-name="Path 1263" d="M1329.366,158.218h.077v-4.534h.438v4.458h-.515v.077h0v.077h.668V153.53h-.745v4.765h.077v-.077m3.215,0h-.592v-4.045H1330.7v-.566h3.164v.566h-1.286v4.045" transform="translate(-1283.375 -148.227)" fill="#fffbff"/>
  <path id="Path_1264" data-name="Path 1264" d="M1369.969,157.479V157.4h-.515v-4.045h-1.286v-.413h3.01v.413h-1.286v4.122h.077v0h.077v-3.968h1.286v-.72h-3.317v.72h1.286v4.045h.746v-.077h-.077m4.336-.982a1.769,1.769,0,0,0,2.5,0,1.968,1.968,0,0,0,0-2.647,1.768,1.768,0,0,0-2.5,0,1.97,1.97,0,0,0,0,2.647Zm2.939.386a2.387,2.387,0,0,1-3.376,0,2.494,2.494,0,0,1,0-3.419,2.379,2.379,0,0,1,3.373,0,2.486,2.486,0,0,1,0,3.416Z" transform="translate(-1320.763 -147.487)" fill="#fffbff"/>
  <path id="Path_1265" data-name="Path 1265" d="M1516.82,154.348l-.055.054a1.845,1.845,0,0,0,2.61,0,2.044,2.044,0,0,0,0-2.755,1.845,1.845,0,0,0-2.61,0,2.046,2.046,0,0,0,0,2.755l.055-.054.054-.054a1.893,1.893,0,0,1,0-2.539,1.692,1.692,0,0,1,2.392,0,1.892,1.892,0,0,1,0,2.539,1.692,1.692,0,0,1-2.392,0Zm2.939.386-.055-.053a2.311,2.311,0,0,1-3.266,0l0,0,0,0a2.418,2.418,0,0,1,0-3.313,2.3,2.3,0,0,1,3.263,0,2.409,2.409,0,0,1,0,3.309l.055.053.055.053a2.563,2.563,0,0,0,0-3.523,2.456,2.456,0,0,0-3.483,0h0a2.572,2.572,0,0,0,0,3.527l0,0,0,0a2.464,2.464,0,0,0,3.486,0Zm1.508.6v-4.611h.72l2.237,3.587h.026l-.026-.889v-2.7h.592v4.611h-.617l-2.341-3.761h-.025l.025.889v2.872h-.591" transform="translate(-1463.278 -145.339)" fill="#fffbff"/>
  <path id="Path_1266" data-name="Path 1266" d="M938.234,158.218h.077v-4.534h.6l2.237,3.587h.147l-.028-.967v-2.621h.439v4.458h-.5l-2.341-3.761h-.147l.028.967v2.794h-.514v.077h0v.077h.668v-2.95l-.025-.89-.077,0v.077h.026v-.077l-.065.041,2.363,3.8h.737V153.53h-.745v2.776l.026.89.077,0v-.077h-.026v.077l.065-.041L939,153.53h-.839v4.765h.077v-.077M962.3,171.283h1.432v-9.608H962.3Zm12.9-6.147-1.641,4.165H973.5l-1.7-4.165h-1.542l2.555,5.822-1.456,3.238h1.494l3.936-9.06Zm-8.12,5.056c-.47,0-1.123-.235-1.123-.816,0-.742.815-1.026,1.518-1.026a2.545,2.545,0,0,1,1.308.322A1.737,1.737,0,0,1,967.074,170.192Zm.173-5.266a2.687,2.687,0,0,0-2.554,1.471l1.271.531a1.356,1.356,0,0,1,1.308-.7,1.379,1.379,0,0,1,1.505,1.236v.1a3.162,3.162,0,0,0-1.493-.371c-1.37,0-2.765.754-2.765,2.163a2.218,2.218,0,0,0,2.382,2.114,2.02,2.02,0,0,0,1.827-.939h.049v.742h1.382v-3.684A2.633,2.633,0,0,0,967.246,164.926Zm-8.849,1.38h-2.036v-3.293H958.4a1.647,1.647,0,1,1,0,3.293Zm-.037-4.63H954.93v9.608h1.431v-3.64h2a2.988,2.988,0,1,0,0-5.968Zm-18.708,8.518a1.988,1.988,0,0,1,0-3.962,2,2,0,0,1,0,3.962Zm1.644-4.519h-.049a2.26,2.26,0,0,0-1.718-.73,3.272,3.272,0,0,0,0,6.537,2.224,2.224,0,0,0,1.718-.743h.049v.47c0,1.251-.667,1.919-1.743,1.919a1.807,1.807,0,0,1-1.644-1.164l-1.248.52a3.11,3.11,0,0,0,2.893,1.932c1.681,0,3.1-.991,3.1-3.405v-5.869H941.3Zm2.349,5.609h1.434v-9.608h-1.434Zm3.548-3.17a1.791,1.791,0,0,1,1.706-1.907,1.262,1.262,0,0,1,1.211.694Zm4.45-1.089a3.034,3.034,0,0,0-2.794-2.08,3.1,3.1,0,0,0-3.078,3.269,3.2,3.2,0,0,0,3.239,3.269,3.246,3.246,0,0,0,2.72-1.449l-1.113-.743a1.863,1.863,0,0,1-1.607.9,1.66,1.66,0,0,1-1.582-.99l4.364-1.808Zm-34.765-1.077v1.387h3.313a2.9,2.9,0,0,1-.754,1.746,3.387,3.387,0,0,1-2.559,1.015,3.69,3.69,0,0,1,0-7.379,3.528,3.528,0,0,1,2.5.991l.977-.978a4.825,4.825,0,0,0-3.474-1.4,5.077,5.077,0,1,0,0,10.153,4.489,4.489,0,0,0,4.735-4.668,4.505,4.505,0,0,0-.074-.867Zm8.5,4.247a1.986,1.986,0,1,1,1.842-1.981A1.89,1.89,0,0,1,925.38,170.194Zm0-5.25a3.269,3.269,0,1,0,3.276,3.269A3.219,3.219,0,0,0,925.38,164.944Zm7.146,5.25a1.986,1.986,0,1,1,1.842-1.981A1.89,1.89,0,0,1,932.526,170.194Zm0-5.25a3.269,3.269,0,1,0,3.276,3.269A3.219,3.219,0,0,0,932.526,164.944Z" transform="translate(-880.245 -148.227)" fill="#fffbff"/>
  <path id="Path_1267" data-name="Path 1267" d="M221.952,162.383a1.486,1.486,0,0,0-.411,1.136v16.773a1.541,1.541,0,0,0,.355,1.08l.057.055h0a.985.985,0,0,0,.678.25,1.765,1.765,0,0,0,.86-.258l11.138-6.338,3.826-2.177a1.432,1.432,0,0,0,.8-1h0a1.431,1.431,0,0,0-.8-1l-3.826-2.177-11.137-6.338a1.768,1.768,0,0,0-.861-.258.987.987,0,0,0-.677.249Z" transform="translate(-213.889 -156.534)" fill="#00c1ff"/>
  <path id="Path_1268" data-name="Path 1268" d="M.527-532.523l-.057-.055a1.541,1.541,0,0,1-.355-1.08V-550.43a1.486,1.486,0,0,1,.411-1.136l9.507,9.522L.527-532.523" transform="translate(7.537 557.416)" fill="url(#linear-gradient)"/>
  <path id="Path_1269" data-name="Path 1269" d="M3.855-178.218.686-181.392l3.169-3.174,3.826,2.177a1.432,1.432,0,0,1,.8,1h0a1.432,1.432,0,0,1-.8,1l-3.826,2.177" transform="translate(16.884 196.764)" fill="url(#linear-gradient-2)"/>
  <path id="Path_1270" data-name="Path 1270" d="M1.118-273.246a.986.986,0,0,1-.678-.25h0l9.506-9.521,3.169,3.175L1.978-273.5a1.765,1.765,0,0,1-.86.258" transform="translate(7.624 298.388)" fill="url(#linear-gradient-3)"/>
  <path id="Path_1271" data-name="Path 1271" d="M9.7-273.834.19-283.355a.987.987,0,0,1,.677-.25,1.768,1.768,0,0,1,.861.258l11.137,6.338L9.7-273.834" transform="translate(7.873 289.205)" fill="url(#linear-gradient-4)"/>
  <path id="Path_1272" data-name="Path 1272" d="M1.525-188.385a.988.988,0,0,1-.678-.25h0l0,0-.049-.048,0-.005.057-.057a.985.985,0,0,0,.678.25,1.765,1.765,0,0,0,.86-.258l11.138-6.338.071.071-.072.041L2.385-188.643a1.832,1.832,0,0,1-.789.256l-.07,0" transform="translate(7.217 213.64)" fill="url(#linear-gradient-5)"/>
  <path id="Path_1273" data-name="Path 1273" d="M.47-34.113a1.54,1.54,0,0,1-.355-1.08v-.112a1.541,1.541,0,0,0,.355,1.08l.057.055-.057.057" transform="translate(7.537 59.063)" fill="url(#linear-gradient-6)"/>
  <path id="Path_1274" data-name="Path 1274" d="M.713-90.882l-.071-.072,3.826-2.177a1.432,1.432,0,0,0,.8-1,.953.953,0,0,1-.089.4,1.648,1.648,0,0,1-.716.712L.713-90.882" transform="translate(20.097 109.5)" fill="url(#linear-gradient-7)"/>
  <path id="Path_1275" data-name="Path 1275" d="M5.263-91.438a1.432,1.432,0,0,0-.8-1L.633-94.613.7-94.684h0l3.754,2.137a1.349,1.349,0,0,1,.8,1.109" transform="translate(20.106 106.81)" fill="url(#linear-gradient-8)"/>
  <path id="Path_1276" data-name="Path 1276" d="M.115-33.566v-.117c0-.042,0-.084,0-.124v0a.005.005,0,0,1,0,0v0a1.466,1.466,0,0,1,.352-.943l.056.056a1.486,1.486,0,0,0-.411,1.136" transform="translate(7.537 40.551)" fill="url(#linear-gradient-9)"/>
  <path id="Path_1277" data-name="Path 1277" d="M13.521-188.194,2.384-194.532a1.768,1.768,0,0,0-.861-.258.987.987,0,0,0-.677.249L.789-194.6q.026-.028.055-.054l0,0a.986.986,0,0,1,.671-.25h.006a1.768,1.768,0,0,1,.861.259l11.209,6.379h0l-.071.072" transform="translate(7.218 200.391)" fill="url(#linear-gradient-10)"/>
</svg>
