<svg xmlns="http://www.w3.org/2000/svg" width="14.926" height="14.927" viewBox="0 0 14.926 14.927">
  <g id="close-btn" transform="translate(-0.039 0.001)">
    <path id="Path_1" data-name="Path 1" d="M.807,14.926a.768.768,0,0,1-.543-1.311L13.654.224A.768.768,0,0,1,14.74,1.31L1.35,14.7a.77.77,0,0,1-.544.225Zm0,0" transform="translate(0)" fill="#f7f0e8"/>
    <path id="Path_2" data-name="Path 2" d="M14.2,14.926a.762.762,0,0,1-.543-.225L.264,1.311A.768.768,0,0,1,1.35.224l13.39,13.39a.768.768,0,0,1-.542,1.311Zm0,0" transform="translate(0 0)" fill="#f7f0e8"/>
  </g>
</svg>
