<svg id="Layer_1" data-name="Layer 1" xmlns="http://www.w3.org/2000/svg" viewBox="0 0 558 372"><defs><style>.cls-1{fill:#a0bff8;}.cls-2{fill:#eff3fe;}.cls-3{fill:#d4e2fc;}.cls-4{fill:#fff;}.cls-5{fill:#05a357;}.cls-6{fill:#66d19e;}.cls-7{fill:#09864a;}.cls-8{fill:#5b91f5;}.cls-9{fill:#174291;}.cls-10{fill:#276ef1;}.cls-11{fill:#050c4d;}.cls-12{fill:#102c60;}.cls-13{fill:#141414;}</style></defs><rect class="cls-1" width="558" height="372"/><path class="cls-2" d="M558,372V241a87.11,87.11,0,0,0-131.48,74.93c0,1.68.06,3.34.15,5a41,41,0,0,0-47.9,40.45c0,.27,0,.54,0,.81a24.2,24.2,0,0,0-26.23,9.8Z"/><path class="cls-3" d="M558,372V250a85.62,85.62,0,0,0-117.23,79.56c0,1.65.05,3.29.15,4.91a40.34,40.34,0,0,0-47,37.57Z"/><path class="cls-2" d="M166.78,372a60.55,60.55,0,0,0-60.39-56.19c-.74,0-1.47,0-2.21.05.07-.84.12-1.7.12-2.56a31,31,0,0,0-40.56-29.45A59.7,59.7,0,0,0,4.49,231.34c-1.51,0-3,.08-4.49.19V372Z"/><path class="cls-3" d="M157.06,372a60.57,60.57,0,0,0-59.51-49.38c-.74,0-1.48,0-2.21.06.07-.85.11-1.7.11-2.56A31,31,0,0,0,54.9,290.66,59.71,59.71,0,0,0,0,238.33V372Z"/><path class="cls-2" d="M111.29,73.67H81.64a15.49,15.49,0,0,0,.75-4.79A15.65,15.65,0,0,0,66.74,53.23c-.18,0-.35,0-.52,0A44.07,44.07,0,0,0,68,40.82,43.73,43.73,0,0,0,40,0H8.68l-1,.4V0H0V84.54H122.16A10.87,10.87,0,0,0,111.29,73.67Z"/><path class="cls-3" d="M94.1,73.67H64.45a15.5,15.5,0,0,0,.76-4.79A15.66,15.66,0,0,0,49.55,53.23c-.18,0-.35,0-.52,0a44.07,44.07,0,0,0,1.8-12.44A43.73,43.73,0,0,0,22.76,0H0V84.54H105A10.87,10.87,0,0,0,94.1,73.67Z"/><path class="cls-4" d="M221.67,372l62.16-78.43a5.51,5.51,0,0,0-.89-7.75L183,206.62a5.5,5.5,0,0,0-7.74.89L45.18,371.63l.47.37Z"/><path class="cls-1" d="M237.19,272.92,228,265.67a1.86,1.86,0,0,1-.3-2.61l1.42-1.79a6.5,6.5,0,0,0-.81-9,6.35,6.35,0,0,0-9,.95l-1.55,2a1.86,1.86,0,0,1-2.61.3L206,248.21a4.86,4.86,0,0,0-6.58.43,4.74,4.74,0,0,0,.57,6.9l31.42,24.91a4.73,4.73,0,0,0,6.84-1A4.84,4.84,0,0,0,237.19,272.92Z"/><path class="cls-3" d="M198.17,342.31a8.25,8.25,0,0,0,14,1.65l1.82-2.29,19.51,15.46L245,342.58l-19.51-15.47.1-.13,5.29-6.68a8.52,8.52,0,0,0-7.2-13.8l-22.2,1.38L186.12,295.7l-3.73-21.92a8.52,8.52,0,0,0-15.08-3.86L162,276.6l-5.5,6.94-7.95,10a8.25,8.25,0,0,0,4.79,13.21l20.59,4.28,15.36,12.17Z"/><polygon class="cls-3" points="161.91 276.73 136.8 256.04 124.88 271.07 150.37 291.28 161.91 276.73"/><polygon class="cls-3" points="134.23 346.27 170.6 331.06 169.94 334.98 169.94 334.98 164.09 369.93 173.9 364.59 176.23 372 181.09 372 188.51 327.64 188.54 327.63 189.3 323.23 184.31 319.28 173.94 311.06 173.93 311.12 118.92 334.13 137.19 335.5 134.23 346.27"/><polygon class="cls-5" points="224.84 321.77 230.14 315.09 221.29 308.08 210.49 321.7 219.34 328.71 224.84 321.77"/><rect class="cls-6" x="177.17" y="294.46" width="19.6" height="19.6" transform="translate(229.45 -50.32) rotate(38.4)"/><path class="cls-5" d="M197.44,337.1,188.56,318l12.18-15.36,24.1,19.11-13.45,17A8.25,8.25,0,0,1,197.44,337.1Z"/><path d="M200.74,302.66l22.19-1.37a8.52,8.52,0,0,1,7.21,13.8h0a8.52,8.52,0,0,1-12,1.38l-17.42-13.81Z"/><polygon class="cls-5" points="161.28 271.38 166.57 264.7 175.42 271.72 164.62 285.34 155.78 278.32 161.28 271.38"/><path class="cls-5" d="M152.61,301.56l20.6,4.29,12.17-15.36-24.1-19.11-13.46,17A8.25,8.25,0,0,0,152.61,301.56Z"/><path d="M185.38,290.49l-3.72-21.92a8.53,8.53,0,0,0-15.09-3.87h0a8.53,8.53,0,0,0,1.39,12l17.42,13.81Z"/><polygon class="cls-7" points="177.13 372 179.48 372 188.52 317.98 173.21 305.85 163.35 364.72 173.16 359.38 177.13 372"/><polygon points="169.86 325.84 169.2 329.76 187.81 322.41 188.56 318.02 172.35 311.19 169.86 325.84"/><polygon class="cls-5" points="118.19 328.92 173.25 305.88 188.56 318.02 133.5 341.05 136.46 330.29 118.19 328.92"/><rect class="cls-7" x="215.87" y="328.81" width="28.71" height="18.57" transform="translate(259.83 -69.87) rotate(38.4)"/><rect class="cls-7" x="129.8" y="260.59" width="28.71" height="18.57" transform="translate(198.83 -31.16) rotate(38.4)"/><rect x="214.51" y="171.38" width="237.57" height="2" transform="translate(-37.72 228.45) rotate(-35.94)"/><polygon class="cls-2" points="435.23 99.05 435.23 99.05 426.01 111.41 420.11 102.1 435.23 99.05"/><rect class="cls-2" x="416.04" y="105.55" width="14.04" height="2.42" rx="1.21" transform="translate(559.17 521.3) rotate(-122.34)"/><rect class="cls-8" x="426.29" y="99.86" width="7.39" height="5.03" rx="1.56" transform="translate(573.5 520.42) rotate(-122.34)"/><path class="cls-9" d="M458.86,0c-29.95,33.57-42.31,82.24-29.37,102.68,15.81,25,82.92,32.55,128.51,7.89V0Z"/><path class="cls-10" d="M558,99.61a80.91,80.91,0,0,1-8.06,5.86c-21,13.27-47.44,19.19-71.93,19.32,25.45,2.88,55.76-1.12,80-14.22Z"/><polygon class="cls-11" points="535.52 21.26 535.52 21.26 526.29 33.62 520.39 24.31 535.52 21.26"/><rect class="cls-11" x="516.32" y="27.76" width="14.04" height="2.42" rx="1.21" transform="translate(778.82 486.63) rotate(-122.34)"/><rect class="cls-11" x="526.57" y="22.06" width="7.39" height="5.03" rx="1.56" transform="translate(793.15 485.75) rotate(-122.34)"/><path class="cls-11" d="M524.77,0c-.47,10.06,1.12,18.75,5,24.89,5,7.92,15.2,14.09,28.22,18V0Z"/><polygon class="cls-11" points="558 3.6 437.34 91.02 438.52 92.64 558 6.07 558 3.6"/><rect x="159.69" y="131.26" width="233.19" height="2" transform="translate(58.9 348.06) rotate(-70.37)"/><polygon class="cls-9" points="317.43 17.22 317.43 17.22 307.05 28.63 317.32 32.64 317.43 17.22"/><rect class="cls-9" x="305.17" y="29.43" width="14.04" height="2.42" rx="1.21" transform="matrix(0.93, 0.36, -0.36, 0.93, 32.58, -111.55)"/><rect class="cls-10" x="311.48" y="20.49" width="7.39" height="5.03" rx="1.56" transform="translate(30 -113.16) rotate(21.35)"/><path class="cls-12" d="M292.26,0c6.29,11.66,14.14,20.2,22.7,23.54,16.63,6.51,45.75-3.47,70.82-23.54Z"/><rect x="198.91" y="177.57" width="143.76" height="2" transform="translate(-13.88 334.06) rotate(-62.05)"/><rect x="231.41" y="117.99" width="2" height="124.26" transform="translate(-12.96 18.09) rotate(-4.34)"/><path d="M228.35,253.25a1,1,0,0,1-.65-.25,1,1,0,0,1-.11-1.41l8.76-10.17a1,1,0,0,1,1.52,1.3l-8.76,10.18A1,1,0,0,1,228.35,253.25Z"/><polygon class="cls-9" points="307 109.39 307 109.39 296.11 120.31 306.18 124.8 307 109.39"/><rect class="cls-9" x="294.12" y="121.35" width="14.04" height="2.42" rx="1.21" transform="translate(75.94 -111.95) rotate(24.01)"/><rect class="cls-13" x="300.78" y="112.56" width="7.39" height="5.03" rx="1.56" transform="translate(73.19 -113.95) rotate(24.01)"/><path class="cls-9" d="M274.6,0c-12.12,47.12,4.54,104.42,29.64,115.6,27.34,12.18,91.83-20.21,114.39-70.84a81.56,81.56,0,0,0,6-44.76Z"/><path class="cls-11" d="M318.26,25.24l.24-.61c17,4,43.9-5.92,67.27-24.63h-93.5c5.46,10.12,12.1,17.89,19.35,22l-.24.6a1.55,1.55,0,0,0,.06,1.25l-3.52,3.87-.71-.27a1.2,1.2,0,0,0-.88,2.24l4.83,1.89L287.07,99.05q.68,1.08,1.38,2.1L313,32.26l4.14,1.62a1.21,1.21,0,0,0,1.56-.69,1.19,1.19,0,0,0-.68-1.56l-.71-.28,0-5.23A1.57,1.57,0,0,0,318.26,25.24Z"/><polygon class="cls-8" points="227.63 111.38 227.63 111.38 222.3 125.85 233.32 125.71 227.63 111.38"/><rect class="cls-8" x="220.79" y="124.58" width="14.04" height="2.42" rx="1.21" transform="translate(-1.56 2.87) rotate(-0.72)"/><rect class="cls-13" x="224.01" y="115.07" width="7.39" height="5.03" rx="1.56" transform="translate(-1.46 2.87) rotate(-0.72)"/><path class="cls-8" d="M151,0a76.25,76.25,0,0,0-.31,7.87c.68,53.81,46.19,110.69,77.05,110.3,29.92-.38,75-56.78,74.25-112.2,0-2-.15-4-.33-6Z"/><path class="cls-10" d="M301.65,0h-27c-6.91,26.85-4.47,57,3.55,80C292.13,59.31,302.3,32.53,302,6,301.94,4,301.83,2,301.65,0Z"/><path class="cls-3" d="M163.86,17.88A79,79,0,0,1,165.72,0H151a76.25,76.25,0,0,0-.31,7.87c.54,42.73,29.36,87.4,56.66,103.78C184.66,90.92,164.31,53.72,163.86,17.88Z"/><rect x="201.93" y="167.76" width="187.98" height="2" transform="translate(-20.93 293.88) rotate(-51.24)"/><polygon class="cls-5" points="362.42 87.2 362.42 87.2 349.11 95 357.7 101.89 362.42 87.2"/><rect class="cls-5" x="346.39" y="97.24" width="14.04" height="2.42" rx="1.21" transform="translate(139.35 -199.49) rotate(38.74)"/><rect x="354.84" y="89.54" width="7.39" height="5.03" rx="1.56" transform="translate(136.47 -204.1) rotate(38.74)"/><path class="cls-5" d="M347.73,0C336.59,37.64,341,78.72,358.17,92.5c23.34,18.73,93.95,3.8,128.63-39.44A82.12,82.12,0,0,0,504.49,0Z"/><path class="cls-6" d="M357.53,0h-9.8c-7.67,25.94-8,53.51-1.79,72.66C343.4,50.75,347,23.61,357.53,0Z"/><rect x="230.44" y="213.27" width="122.63" height="2" transform="translate(-65.44 155.59) rotate(-26.97)"/><polygon class="cls-2" points="351.83 183.44 351.83 183.44 341.94 195.28 336.56 185.66 351.83 183.44"/><rect class="cls-2" x="332.23" y="189.26" width="14.04" height="2.42" rx="1.21" transform="translate(338.51 579.53) rotate(-119.2)"/><rect x="342.71" y="183.95" width="7.39" height="5.03" rx="1.56" transform="translate(352.64 579.82) rotate(-119.2)"/><path class="cls-2" d="M406.1,66.43c-48.38,27-74.8,94.2-60.2,120.32,15.06,26.94,87.06,38,134,11.76,36.47-20.39,53.14-68.51,32.76-105S442.58,46,406.1,66.43Z"/><path class="cls-3" d="M510.26,89.54c-.44-.68-.9-1.35-1.36-2l-.74-1q-.71-1-1.44-1.89L506,83.7c-.7-.86-1.42-1.71-2.17-2.53-.22-.26-.46-.5-.69-.75-.54-.58-1.08-1.15-1.64-1.71-.36-.37-.72-.72-1.09-1.08l-1.34-1.26c-.41-.37-.82-.75-1.24-1.11s-.84-.73-1.27-1.08-.9-.76-1.35-1.12l-.86-.65c-1.06-.82-2.14-1.61-3.25-2.36l-.93-.64-1.83-1.17c-.3-.18-.59-.37-.89-.54-.66-.4-1.31-.79-2-1.16l-.56-.31a77.61,77.61,0,0,0-7.23-3.5c-22.39-9.46-49.43-8.68-71.59,3.7-14.7,8.22-27.36,20.14-37.47,33.48,14.88,3.9,36.1,1.9,57.35-5.58a33,33,0,0,0,1.77,5.08l-.55.35a1.57,1.57,0,0,0-.7,1l-5.12,1-.41-.64a1.21,1.21,0,1,0-2,1.29L421.8,107,342,164.84c0,.86-.07,1.7-.09,2.54h0l81-58.66,2.28,3.59a1.2,1.2,0,0,0,1.66.38,1.22,1.22,0,0,0,.38-1.67l-.41-.64,3.13-4.19a1.53,1.53,0,0,0,1.24-.19l.55-.34c14.15,16.73,52.78,24.35,89.63,17.51h0c0-.54-.08-1.09-.12-1.63s-.13-1.36-.21-2-.13-1.1-.21-1.65c-.1-.76-.21-1.51-.34-2.26-.08-.46-.17-.92-.26-1.38q-.23-1.23-.51-2.46-.12-.56-.27-1.11c-.21-.89-.44-1.78-.7-2.66-.08-.28-.17-.57-.26-.85-.29-1-.59-1.92-.93-2.87l-.21-.59c-.37-1-.76-2-1.19-3.07l-.15-.35c-.46-1.08-.94-2.16-1.46-3.23l-.07-.14c-.55-1.13-1.13-2.25-1.75-3.35s-1.19-2-1.82-3C510.67,90.16,510.46,89.86,510.26,89.54Z"/><path class="cls-4" d="M407.76,73.5c30.33-17,69.19-13.67,95.34,6.87-23.78-25.67-65.37-31.62-97-13.94-35.36,19.77-59,61-63.44,91.91C351.44,127.54,374.87,91.89,407.76,73.5Z"/><polygon points="188.56 318.02 173.25 305.88 170.31 307.12 185.03 319.5 188.56 318.02"/></svg>