<svg xmlns="http://www.w3.org/2000/svg" width="429" height="346" viewBox="0 0 429 346">
  <g id="contactless-service" transform="translate(-569 -614)">
    <rect id="Rectangle_12" data-name="Rectangle 12" width="429" height="346" transform="translate(569 614)" fill="#d7f5ff"/>
    <g id="undraw_Mobile_pay_re_sjb8" transform="translate(621.45 653.735)">
      <path id="Path_63" data-name="Path 63" d="M399.009,173.557h-1.4V135.2a22.2,22.2,0,0,0-22.2-22.2H294.144a22.2,22.2,0,0,0-22.2,22.2V345.63a22.2,22.2,0,0,0,22.2,22.2h81.265a22.2,22.2,0,0,0,22.2-22.2V200.86h1.4Z" transform="translate(-232.397 -113)" fill="#3f3d56"/>
      <path id="Path_64" data-name="Path 64" d="M385.246,128.933H374.638a7.877,7.877,0,0,1-7.292,10.851H320.79a7.877,7.877,0,0,1-7.293-10.851H303.59a16.579,16.579,0,0,0-16.579,16.579V355.633a16.579,16.579,0,0,0,16.579,16.579h81.656a16.579,16.579,0,0,0,16.579-16.579V145.512a16.579,16.579,0,0,0-16.579-16.579Zm-1.782,97.476a4.307,4.307,0,0,1-4.294,4.294H358.414a4.307,4.307,0,0,1-4.294-4.294v-1.074a4.307,4.307,0,0,1,4.294-4.294h20.755a4.307,4.307,0,0,1,4.294,4.294Zm2.326-18.966a4.307,4.307,0,0,1-4.294,4.294H307.062a4.307,4.307,0,0,1-4.294-4.294V206.37a4.307,4.307,0,0,1,4.294-4.294H381.5a4.307,4.307,0,0,1,4.294,4.294Zm0-18.966a4.307,4.307,0,0,1-4.294,4.294H307.062a4.307,4.307,0,0,1-4.294-4.294V187.4a4.307,4.307,0,0,1,4.294-4.294H381.5a4.307,4.307,0,0,1,4.294,4.294Zm0-18.966A4.307,4.307,0,0,1,381.5,173.8H307.062a4.307,4.307,0,0,1-4.294-4.294v-1.074a4.307,4.307,0,0,1,4.294-4.294H381.5a4.307,4.307,0,0,1,4.294,4.294Z" transform="translate(-241.506 -122.632)" fill="#fff"/>
      <circle id="Ellipse_13" data-name="Ellipse 13" cx="2.505" cy="2.505" r="2.505" transform="translate(64.661 81.948)" fill="#fff"/>
      <circle id="Ellipse_14" data-name="Ellipse 14" cx="2.505" cy="2.505" r="2.505" transform="translate(72.892 81.948)" fill="#fff"/>
      <circle id="Ellipse_15" data-name="Ellipse 15" cx="2.505" cy="2.505" r="2.505" transform="translate(81.122 81.948)" fill="#fff"/>
      <circle id="Ellipse_16" data-name="Ellipse 16" cx="2.505" cy="2.505" r="2.505" transform="translate(89.353 81.948)" fill="#fff"/>
      <circle id="Ellipse_17" data-name="Ellipse 17" cx="2.505" cy="2.505" r="2.505" transform="translate(116.192 100.915)" fill="#fff"/>
      <circle id="Ellipse_18" data-name="Ellipse 18" cx="2.505" cy="2.505" r="2.505" transform="translate(124.423 100.915)" fill="#fff"/>
      <circle id="Ellipse_19" data-name="Ellipse 19" cx="2.505" cy="2.505" r="2.505" transform="translate(132.653 100.915)" fill="#fff"/>
      <path id="Path_65" data-name="Path 65" d="M396.984,456.6H312.1a7.52,7.52,0,0,0-7.52,7.52v41.36A7.52,7.52,0,0,0,312.1,513h84.889a7.52,7.52,0,0,0,7.52-7.52v-41.36a7.52,7.52,0,0,0-7.52-7.52Zm-86.99,5.13a10.377,10.377,0,0,1,12.042,7.245l.133.413-.427.076a11.329,11.329,0,0,1-1.842.135,10.968,10.968,0,0,1-5.592-1.409,11.878,11.878,0,0,1-4.608-5.971l-.133-.413Zm18.427,38.4H313.281a4.164,4.164,0,0,1,0-8.327h15.141a4.164,4.164,0,0,1,0,8.327Zm68.89-.757a4.556,4.556,0,0,1-4.543,4.542H381.414a4.556,4.556,0,0,1-4.542-4.542V492.56a4.555,4.555,0,0,1,4.542-4.542H392.77a4.556,4.556,0,0,1,4.542,4.542Z" transform="translate(-252.125 -320.725)" fill="#86d1d0"/>
      <path id="Path_66" data-name="Path 66" d="M499.284,561.213h-4.565a1.229,1.229,0,1,0,0,2.458h4.566a1.229,1.229,0,0,0,0-2.458Z" transform="translate(-366.334 -383.969)" fill="#3f3d56"/>
      <path id="Path_67" data-name="Path 67" d="M520.6,561.213h-4.566a1.229,1.229,0,1,0,0,2.458H520.6a1.229,1.229,0,0,0,0-2.458Z" transform="translate(-379.22 -383.969)" fill="#3f3d56"/>
      <path id="Path_68" data-name="Path 68" d="M499.283,552.438h-4.566a1.229,1.229,0,0,0,0,2.458h4.566a1.229,1.229,0,1,0,0-2.458Z" transform="translate(-366.332 -378.664)" fill="#3f3d56"/>
      <path id="Path_69" data-name="Path 69" d="M520.6,552.438h-4.566a1.229,1.229,0,1,0,0,2.458H520.6a1.229,1.229,0,1,0,0-2.458Z" transform="translate(-379.218 -378.664)" fill="#3f3d56"/>
      <path id="Path_70" data-name="Path 70" d="M499.283,543.841h-4.566a1.229,1.229,0,0,0,0,2.458h4.566a1.229,1.229,0,0,0,0-2.458Z" transform="translate(-366.332 -373.467)" fill="#3f3d56"/>
      <path id="Path_71" data-name="Path 71" d="M520.6,543.841h-4.566a1.229,1.229,0,1,0,0,2.458H520.6a1.229,1.229,0,1,0,0-2.458Z" transform="translate(-379.218 -373.467)" fill="#3f3d56"/>
      <rect id="Rectangle_13" data-name="Rectangle 13" width="10.661" height="10.661" transform="translate(193.087 151.626)" fill="#e6e6e6"/>
      <path id="Path_72" data-name="Path 72" d="M625.939,513h18.19v18.191h-18.19Zm17.4.791H626.73V530.4h16.609Z" transform="translate(-446.406 -354.821)" fill="#3f3d56"/>
      <rect id="Rectangle_14" data-name="Rectangle 14" width="10.661" height="10.661" transform="translate(0 60.414)" fill="#e6e6e6"/>
      <path id="Path_73" data-name="Path 73" d="M205.13,248.191H186.939V230H205.13Zm-17.4-.791h16.609V230.791H187.73Z" transform="translate(-181.007 -183.733)" fill="#3f3d56"/>
      <path id="Path_74" data-name="Path 74" d="M642.14,632.829h-4.848l-2.306-18.7h7.155Z" transform="translate(-383.883 -371.274)" fill="#ffb8b8"/>
      <path id="Path_75" data-name="Path 75" d="M623.06,657.914h9.35V663.8H617.173A5.887,5.887,0,0,1,623.06,657.914Z" transform="translate(-373.114 -397.744)" fill="#2f2e41"/>
      <path id="Path_76" data-name="Path 76" d="M703.14,632.829h-4.848l-2.306-18.7h7.155Z" transform="translate(-420.76 -371.274)" fill="#ffb8b8"/>
      <path id="Path_77" data-name="Path 77" d="M684.06,657.914h9.35V663.8H678.173A5.887,5.887,0,0,1,684.06,657.914Z" transform="translate(-409.992 -397.744)" fill="#2f2e41"/>
      <path id="Path_78" data-name="Path 78" d="M762.394,526.282a4.248,4.248,0,0,1,1.784-6.265l16.481-45.424,8.109,4.426-18.817,43.409a4.271,4.271,0,0,1-7.556,3.855Z" transform="translate(-528.458 -331.602)" fill="#ffb8b8"/>
      <path id="Path_79" data-name="Path 79" d="M870.2,543.624a4.248,4.248,0,0,1-1.144-6.413l-5.106-48.05,9.229.422,2.122,47.264a4.271,4.271,0,0,1-5.1,6.778Z" transform="translate(-590.297 -340.41)" fill="#ffb8b8"/>
      <circle id="Ellipse_20" data-name="Ellipse 20" cx="9.713" cy="9.713" r="9.713" transform="translate(255.467 115.152)" fill="#ffb8b8"/>
      <path id="Path_80" data-name="Path 80" d="M834.832,516.5H805.55l.035-.228c.053-.341,5.219-34.182,1.409-45.253a4.671,4.671,0,0,1,2.4-5.767h0c5.446-2.565,15.9-5.723,24.723,1.941a11.166,11.166,0,0,1,3.741,9.252Z" transform="translate(-554.991 -324.218)" fill="#ccc"/>
      <path id="Path_81" data-name="Path 81" d="M799.618,492.06l-13.183-2.674,6.179-14.643a5.535,5.535,0,1,1,10.719,2.767Z" transform="translate(-543.435 -329.182)" fill="#ccc"/>
      <path id="Path_82" data-name="Path 82" d="M861.09,498.593l-.792-18.167c-.6-3.415,1.354-6.644,4.361-7.171s5.944,1.843,6.548,5.283l2.979,16.976Z" transform="translate(-588.023 -330.749)" fill="#ccc"/>
      <path id="Path_83" data-name="Path 83" d="M831.446,593.752c4.711,17.944,5.226,40.758,3.954,65.644l-6.327-.791L817.6,611.152,811.278,659.4l-7.118-.4c-2.126-26.111-4.2-48.527-.791-63.271Z" transform="translate(-552.579 -403.64)" fill="#2f2e41"/>
      <path id="Path_84" data-name="Path 84" d="M831.1,414.571a3.137,3.137,0,0,1-5.413-1.743,3.187,3.187,0,0,1,0-.615c.122-1.168.8-2.228.635-3.462a1.814,1.814,0,0,0-.332-.85c-1.444-1.933-4.833.865-6.2-.885-.836-1.073.147-2.763-.495-3.963-.846-1.583-3.353-.8-4.925-1.669-1.749-.965-1.644-3.648-.493-5.28a8.306,8.306,0,0,1,6.3-3.206,16.891,16.891,0,0,1,7.115,1.389,14.22,14.22,0,0,1,6.723,4.661,11.38,11.38,0,0,1,1.15,9.689C834.579,410.6,832.575,412.995,831.1,414.571Z" transform="translate(-559.516 -282.2)" fill="#2f2e41"/>
      <path id="Path_85" data-name="Path 85" d="M796.121,785.791H645.456a.4.4,0,0,1,0-.791H796.121a.4.4,0,0,1,0,.791Z" transform="translate(-457.966 -519.26)" fill="#3f3d56"/>
    </g>
  </g>
</svg>
