<svg xmlns="http://www.w3.org/2000/svg" width="429" height="346" viewBox="0 0 429 346">
  <g id="mask" transform="translate(-1164 -614)">
    <rect id="Rectangle_11" data-name="Rectangle 11" width="429" height="346" transform="translate(1164 614)" fill="#d7f5ff"/>
    <g id="mask-2" data-name="mask" transform="translate(1227.54 653.05)">
      <ellipse id="Ellipse_1" data-name="Ellipse 1" cx="32.845" cy="67.017" rx="32.845" ry="67.017" transform="translate(9.711 46.82)" fill="#86d1d0"/>
      <path id="Path_1" data-name="Path 1" d="M265.277,299.967c1.638-29.172,4.939-48.877,4.973-49.073l-.716-.121c-.033.2-3.34,19.932-4.981,49.142-1.514,26.959-1.88,67.736,4.981,108.9l.717-.119C263.4,367.6,263.765,326.886,265.277,299.967Z" transform="translate(-223.022 -185.435)" fill="#3f3d56"/>
      <rect id="Rectangle_1" data-name="Rectangle 1" width="33.683" height="0.727" transform="translate(42.215 116.141) rotate(-28.157)" fill="#3f3d56"/>
      <rect id="Rectangle_2" data-name="Rectangle 2" width="0.727" height="33.683" transform="translate(10.864 108.853) rotate(-61.858)" fill="#3f3d56"/>
      <path id="Path_62" data-name="Path 62" d="M42.611,0C66.145,0,85.222,38.926,85.222,86.944s-19.078,86.944-42.611,86.944S0,134.961,0,86.944,19.078,0,42.611,0Z" transform="translate(227.697 0)" fill="#86d1d0"/>
      <path id="Path_2" data-name="Path 2" d="M925.53,194.661c2.126-37.852,6.409-63.42,6.453-63.674l-.679-.115c-.043.254-4.332,25.852-6.46,63.739-1.965,34.968-2.438,87.86,6.46,141.252l.679-.113C923.094,282.424,923.568,229.591,925.53,194.661Z" transform="translate(-655.739 -106.826)" fill="#3f3d56"/>
      <rect id="Rectangle_3" data-name="Rectangle 3" width="43.698" height="0.689" transform="translate(269.926 90.045) rotate(-28.157)" fill="#3f3d56"/>
      <rect id="Rectangle_4" data-name="Rectangle 4" width="0.689" height="43.698" transform="translate(229.252 80.367) rotate(-61.858)" fill="#3f3d56"/>
      <ellipse id="Ellipse_3" data-name="Ellipse 3" cx="15.921" cy="32.484" rx="15.921" ry="32.484" transform="translate(203.048 132.467)" fill="#e6e6e6"/>
      <path id="Path_3" data-name="Path 3" d="M752.1,496.611l.094.176,14.395-7.7-.325-.607-14.134,7.565a242.4,242.4,0,0,1,2.414-24.25l-.679-.115a251.607,251.607,0,0,0-2.61,28.29L737,492.335l-.325.607,14.395,7.7.172-.321a240.129,240.129,0,0,0,2.624,48.011l.679-.113C751.426,529.506,751.358,510.823,752.1,496.611Z" transform="translate(-533.147 -330.261)" fill="#3f3d56"/>
      <path id="Path_4" data-name="Path 4" d="M445.327,701.54c-84.8-26.844-161.693-25.414-211.267-19.487-53.708,6.421-87.787,19.351-88.125,19.481l-.247-.643c.339-.13,34.5-13.09,88.289-19.521a512.074,512.074,0,0,1,95.358-2.439,497.4,497.4,0,0,1,116.2,21.954Z" transform="translate(-145.688 -465.37)" fill="#3f3d56"/>
      <path id="Path_5" data-name="Path 5" d="M462.2,716.314s.238-4.983,5.113-4.4" transform="translate(-353.197 -487.731)" fill="#3f3d56"/>
      <circle id="Ellipse_4" data-name="Ellipse 4" cx="2.44" cy="2.44" r="2.44" transform="translate(105.185 218.961)" fill="#86d1d0"/>
      <rect id="Rectangle_5" data-name="Rectangle 5" width="0.689" height="4.821" transform="translate(107.228 225.51)" fill="#3f3d56"/>
      <path id="Path_6" data-name="Path 6" d="M720.2,719.314s.238-4.983,5.113-4.4" transform="translate(-522.345 -489.698)" fill="#3f3d56"/>
      <circle id="Ellipse_5" data-name="Ellipse 5" cx="2.44" cy="2.44" r="2.44" transform="translate(194.037 219.994)" fill="#86d1d0"/>
      <rect id="Rectangle_6" data-name="Rectangle 6" width="0.689" height="4.821" transform="translate(196.08 226.543)" fill="#3f3d56"/>
      <path id="Path_7" data-name="Path 7" d="M295.2,694.314s.238-4.983,5.113-4.4" transform="translate(-243.71 -473.307)" fill="#3f3d56"/>
      <circle id="Ellipse_6" data-name="Ellipse 6" cx="2.44" cy="2.44" r="2.44" transform="translate(47.672 211.384)" fill="#86d1d0"/>
      <rect id="Rectangle_7" data-name="Rectangle 7" width="0.689" height="4.821" transform="translate(49.715 217.933)" fill="#3f3d56"/>
      <path id="Path_8" data-name="Path 8" d="M404.2,675.314s.238-4.983,5.113-4.4" transform="translate(-315.172 -460.851)" fill="#3f3d56"/>
      <circle id="Ellipse_7" data-name="Ellipse 7" cx="2.44" cy="2.44" r="2.44" transform="translate(85.211 204.841)" fill="#86d1d0"/>
      <rect id="Rectangle_8" data-name="Rectangle 8" width="0.689" height="4.821" transform="translate(87.254 211.39)" fill="#3f3d56"/>
      <path id="Path_9" data-name="Path 9" d="M677.2,702.314s.238-4.983,5.113-4.4" transform="translate(-494.154 -478.552)" fill="#3f3d56"/>
      <circle id="Ellipse_8" data-name="Ellipse 8" cx="2.44" cy="2.44" r="2.44" transform="translate(179.229 214.139)" fill="#86d1d0"/>
      <rect id="Rectangle_9" data-name="Rectangle 9" width="0.689" height="4.821" transform="translate(181.272 220.689)" fill="#3f3d56"/>
      <path id="Path_10" data-name="Path 10" d="M967.023,681.78,981.2,702.8l-13.2,13.2-1.711-3.421,2.933-6.843s-.489-6.354-2.2-8.065-9.287-11.975-9.287-11.975Z" transform="translate(-678.077 -468.008)" fill="#ffb8b8"/>
      <path id="Path_11" data-name="Path 11" d="M887.527,484.5s2.688,4.254-2.933,22.583c0,0,26.218,44.25,22.064,47.182s-15.4,9.423-18.33,7.468-24.262-68.191-24.262-68.191Z" transform="translate(-616.665 -338.671)" fill="#2f2e41"/>
      <path id="Path_12" data-name="Path 12" d="M978.532,731.808l4.277,4.277c2.2,2.2,3.666,5.377-.489,8.065s-18.574,12.708-23.462,9.531,5.865-6.11,5.865-6.11,1.778-6.593,2.722-5.129.944,4.4.944,4.4Z" transform="translate(-677.977 -500.807)" fill="#2f2e41"/>
      <path id="Path_13" data-name="Path 13" d="M816.216,710.945s-7.82,14.419-7.82,16.13.489,6.6.489,6.6l-14.908,3.666-5.132-2.444,1.711-4.4s9.287-3.177,11.242-9.287,4.155-12.464,4.155-12.464Z" transform="translate(-567.349 -485.687)" fill="#ffb8b8"/>
      <circle id="Ellipse_9" data-name="Ellipse 9" cx="10.264" cy="10.264" r="10.264" transform="translate(247.645 61.275)" fill="#ffb8b8"/>
      <path id="Path_14" data-name="Path 14" d="M886.774,287.811l4.9,14.08,10.74-4.794s-7.332-11.242-7.332-12.708Z" transform="translate(-631.553 -207.474)" fill="#ffb8b8"/>
      <path id="Path_15" data-name="Path 15" d="M848.756,439.8h12.953s9.287,14.174,3.91,29.082a77.281,77.281,0,0,0-2.456,9.261c-1.876,8.695-3.744,20.473-5.658,31.3-2.689,15.2-5.469,28.52-8.491,28.761-6.11.489-17.99.407-17.99-2.037s7.958-73.147,7.958-73.147l1.711-2.933.323-12.774A7.7,7.7,0,0,1,848.756,439.8Z" transform="translate(-595.002 -309.361)" fill="#2f2e41"/>
      <path id="Path_16" data-name="Path 16" d="M790.13,761.613s2.81,4.766,2.077,8.187-1.955,2.933-7.332,3.421-23.706.489-23.706-2.933,14.3-7.865,14.359-6.5.549,4.054-.917,4.543-.122.122-.122.122Z" transform="translate(-549.205 -520.347)" fill="#2f2e41"/>
      <path id="Path_17" data-name="Path 17" d="M866.373,523.969s-1.063,17.36-8.154,12.192,2.763-14.5,2.763-14.5Z" transform="translate(-611.15 -363.03)" fill="#fff"/>
      <path id="Path_18" data-name="Path 18" d="M879.763,356.895a2.058,2.058,0,0,0,2.107-.249,2.159,2.159,0,0,0,.8-1.362c1.025-5.91,2.273-22.294,2.992-30.578a34.924,34.924,0,0,0-3.642-18.5l-2.655-3.651a2.084,2.084,0,0,0-2.5-.7s-8.29,8.6-8.32,8.933c-.13,1.426-1.117,4.586-6.259,9.729-5.627,5.627-5.658,10.538-5.534,11.909q.012.135.013.27a6.03,6.03,0,0,0,.248,1.818c2.357,7.43.511,16.326-2.453,25.612a2.094,2.094,0,0,0,.844,2.273c.866.589-.172-.285.136.093,2.043,2.5,4.982-.986,8.345-4.792,1.171-1.326,2.5-2.829,4.064-4.394,2.151-2.151,6.262,2.758,8.173,2.758a8.874,8.874,0,0,1,3.638.828Z" transform="translate(-610.388 -218.819)" fill="#575a89"/>
      <path id="Path_19" data-name="Path 19" d="M887.716,325.688s5.369,4.527,2.319,10.4-2.644,10.2-2.644,10.2-.812,40.336-10.342,38.377l-4.335,11.968-7.829-2.826,4.527-10.556s-3.626-.226-2.567-2.7c.744-1.735,4.754-20.566,7.074-31.622.983-4.685,1.664-7.974,1.664-7.974S878.667,324.466,887.716,325.688Z" transform="translate(-617.202 -234.507)" fill="#575a89"/>
      <path id="Path_20" data-name="Path 20" d="M783.017,321.669,780,341.474l1.629-21.177Z" transform="translate(-511.376 -209.99)" opacity="0.2"/>
      <path id="Path_21" data-name="Path 21" d="M861.935,236.7s-1.726-13.43,12.354-9.026c0,0,10.056-1.845,13.354,10.733l3.339,13.185-1.627-.886-.759,1.658-2.637.668-1.128-2.24-.546,2.72-21.6,2.153s9.674-5.721,9.827-15.974l-1.843,1.947Z" transform="translate(-615.224 -169.711)" fill="#2f2e41"/>
      <path id="Path_22" data-name="Path 22" d="M763.014,522.105l4.816-32.092-3.917,34.645Z" transform="translate(-500.241 -321.258)" opacity="0.2"/>
      <circle id="Ellipse_10" data-name="Ellipse 10" cx="5.431" cy="5.431" r="5.431" transform="translate(265.213 52.666)" fill="#2f2e41"/>
      <path id="Path_23" data-name="Path 23" d="M914,216.126a5.427,5.427,0,0,1,5.428-5.076c-.112-.014-.223-.032-.338-.039a5.431,5.431,0,0,0-.7,10.84c.114.007.227,0,.34,0A5.427,5.427,0,0,1,914,216.126Z" transform="translate(-648.949 -159.359)" fill="#2f2e41"/>
      <path id="Path_24" data-name="Path 24" d="M731.768,337.107l-4.778,25.61,6.193-28.287Z" transform="translate(-476.623 -219.256)" opacity="0.2"/>
      <path id="Path_25" data-name="Path 25" d="M871.073,276.165l-2.785,2.1c-2.868-1.443-5.019-4.783-5.8-7.97l3.035-1.531C865.76,272.014,868.068,274.175,871.073,276.165Z" transform="translate(-615.63 -197.229)" fill="#fff"/>
      <path id="Path_26" data-name="Path 26" d="M877.126,269.225h-6.939a.231.231,0,1,1,0-.463h6.939a.231.231,0,1,1,0,.463Z" transform="translate(-620.526 -197.229)" fill="#fff"/>
      <path id="Path_27" data-name="Path 27" d="M886.307,280.569a.231.231,0,0,1-.215-.317l1.85-4.626a.231.231,0,0,1,.429.172l-1.85,4.626A.231.231,0,0,1,886.307,280.569Z" transform="translate(-631.095 -201.633)" fill="#fff"/>
      <ellipse id="Ellipse_11" data-name="Ellipse 11" cx="1.697" cy="2.376" rx="1.697" ry="2.376" transform="translate(255.369 69.977)" fill="#ffb8b8"/>
      <path id="Path_28" data-name="Path 28" d="M399.191,199.842l18.076,4.136,7.637-14.4-15.456-6.034Z" transform="translate(-261.714 -120.331)" fill="#2f2e41"/>
      <path id="Path_29" data-name="Path 29" d="M546.956,509.7s-5.81,13.315-5.81,17.189c0,0,2.3,10.531,1.574,13.436l-2.542,5.447-5.326-2.179L533.4,529.07l.242-23.241Z" transform="translate(-399.876 -352.652)" fill="#ffb9b9"/>
      <path id="Path_30" data-name="Path 30" d="M581.079,281.648s.484,7.989-.484,10.41,3.631,7.021,3.631,7.021l7.263-9.442s-4.842-4.842-3.631-10.168Z" transform="translate(-430.731 -204.249)" fill="#ffb9b9"/>
      <path id="Path_31" data-name="Path 31" d="M532.24,445.736s-7.021,13.073-.242,12.1,4.479-12.468,4.479-12.468" transform="translate(-397.023 -313.017)" fill="#e6e6e6"/>
      <path id="Path_32" data-name="Path 32" d="M396.868,314.269l2.3-22.878-.121-13.921-5.326.968v12.831l-1.089,23.363" transform="translate(-257.414 -181.913)" fill="#ffb9b9"/>
      <path id="Path_33" data-name="Path 33" d="M522.674,602.739l10.41-4.116,1.211,20.578s2.179,6.295,1.453,8.716c0,0,.484,4.116-.726,4.358s-4.6.726-4.842.484-.242-.968-.242-.968-2.421,1.695-2.663,3.631c0,0-10.168,3.147-10.41.242s5.084-5.326,5.084-5.326l4.116-6.295Z" transform="translate(-389.03 -413.489)" fill="#2f2e41"/>
      <path id="Path_34" data-name="Path 34" d="M609.873,509.7s-5.81,13.315-5.81,17.189c0,0,2.3,10.531,1.574,13.436l-2.542,5.447-5.326-2.179-1.453-14.526.242-23.241Z" transform="translate(-441.125 -352.653)" fill="#ffb9b9"/>
      <path id="Path_35" data-name="Path 35" d="M586.645,602.739l10.41-4.116,1.211,20.578s2.179,6.295,1.453,8.716c0,0,.484,4.116-.726,4.358s-4.6.726-4.842.484-.242-.968-.242-.968-2.421,1.695-2.663,3.631c0,0-10.168,3.147-10.41.242s5.084-5.326,5.084-5.326l4.116-6.295Z" transform="translate(-430.97 -413.489)" fill="#2f2e41"/>
      <path id="Path_36" data-name="Path 36" d="M582.285,254.881a7.748,7.748,0,0,1-15.307,1.7,7.507,7.507,0,0,1-.19-1.7,7.748,7.748,0,1,1,15.5,0Z" transform="translate(-421.767 -183.048)" fill="#ffb9b9"/>
      <path id="Path_37" data-name="Path 37" d="M557.07,308.675l6.012-3.122,2.7,2.154s6.537-.242,8.958,2.663,3.753,10.289,3.753,10.289-7.989-1.695-7.021,5.084l-1.452-3.874-1.332,3.268-16.221,5.568-7.263-12.347s-4.842-1.453-6.537,1.937c0,0,.363-12.226,5.084-12.589,3.175-.244,5.568-.242,5.568-.242l2.663-.484,1.705-.605Z" transform="translate(-403.332 -221.349)" fill="#575a89"/>
      <path id="Path_38" data-name="Path 38" d="M561.829,386.966s12.71,38.131,9.079,43.457c0,0-13.558,6.779-40.673-2.421l11.015-42.73A37.446,37.446,0,0,1,561.829,386.966Z" transform="translate(-397.802 -273.13)" fill="#2f2e41"/>
      <path id="Path_39" data-name="Path 39" d="M579.8,336.98l3.577-12.293c-4.291-4.667-.587-15.015-.587-15.015l-5.178-1.109s-5.2,14.012-10.522,12.317-2.421-12.589-2.421-12.589l-4.842.484-2.179,8.473,1.574,18.036A67.662,67.662,0,0,1,579.8,336.98Z" transform="translate(-415.776 -223.145)" fill="#575a89"/>
      <path id="Path_40" data-name="Path 40" d="M486.5,314.269l1.695-23,.484-13.8-5.326.968v12.831l-1.09,23.363" transform="translate(-316.176 -181.913)" fill="#ffb9b9"/>
      <path id="Path_41" data-name="Path 41" d="M621.871,445.736s-7.021,13.073-.242,12.1,4.479-12.468,4.479-12.468" transform="translate(-455.786 -313.017)" fill="#fff"/>
      <path id="Path_42" data-name="Path 42" d="M638.974,325.829s-.861-12.433-8.056-12.39v14.378S636.311,324.618,638.974,325.829Z" transform="translate(-463.81 -226.519)" fill="#575a89"/>
      <path id="Path_43" data-name="Path 43" d="M596.1,268.666a.2.2,0,0,1-.123-.352l3.951-3.161a.2.2,0,0,1,.247.309l-3.951,3.161A.2.2,0,0,1,596.1,268.666Z" transform="translate(-440.857 -194.834)" fill="#fff"/>
      <path id="Path_44" data-name="Path 44" d="M576.363,278.287c-.087.107-.174.213-.265.312a7.748,7.748,0,0,1-10.759-5.358l3.744-.689,7.28.689C574.7,275.273,574.9,275.976,576.363,278.287Z" transform="translate(-420.817 -199.714)" fill="#fff"/>
      <path id="Path_45" data-name="Path 45" d="M555.761,236.081s-4,.753-4.93,5.747a9.171,9.171,0,0,0-.078,2.55c.092.961-.042,2.992-2.129,5.382a52.341,52.341,0,0,0-3.8,4.881h0l4.184,1.114,1.87-6.932a35.46,35.46,0,0,1,4.144-9.524l.038-.062s1.39,3.713,5.114,4.222l-1.148-1.512a47.4,47.4,0,0,0,6.821,3.286,1.621,1.621,0,0,1,.523,2.818l-.053.041c-1.814,1.378-5.516,4.666-4.054,7.847s-.243,3.761-.243,3.761l3.145-1.2,1.439-.616-.145,1.064,7.026.147s1.9-.012-1.474-5.08a4.785,4.785,0,0,1-.146-3.352,7.711,7.711,0,0,0,.779-3.534C572.43,242.026,570.278,231.63,555.761,236.081Z" transform="translate(-407.366 -175.094)" fill="#2f2e41"/>
      <path id="Path_46" data-name="Path 46" d="M239.084,557.137s0,32.876-7.545,41.5c0,0-1.617,4.312-2.156,5.928a22.655,22.655,0,0,1-1.078,2.695v2.156s-14.552-1.617-16.169-5.39l2.695-3.234s.539-.539,0-2.156a1.107,1.107,0,0,1,1.078-1.617l3.773-8.623-.539-35.57,2.695-49.045,23.175-1.078Z" transform="translate(-189.253 -350.603)" fill="#2f2e41"/>
      <path id="Path_47" data-name="Path 47" d="M187.2,799.07s3.773,11.318,0,11.857-36.649,1.078-36.11-3.234,11.318-3.773,11.318-3.773l11.318-7.006Z" transform="translate(-149.226 -543.491)" fill="#2f2e41"/>
      <path id="Path_48" data-name="Path 48" d="M279.11,505.833a24.455,24.455,0,0,1-3.234,14.552c-4.312,7.545-1.617,32.876-1.617,32.876l38.265,33.415s-7.545,12.935-10.24,12.4-45.272-35.032-45.272-35.032l-16.707-56.051Z" transform="translate(-207.721 -352.655)" fill="#2f2e41"/>
      <path id="Path_49" data-name="Path 49" d="M423.659,736.429s11.579,2.872,10.015,6.348-18.709,31.532-22.062,28.768,2.873-11.579,2.873-11.579l.141-13.31Z" transform="translate(-319.38 -503.836)" fill="#2f2e41"/>
      <path id="Path_50" data-name="Path 50" d="M280.746,191.156a12.4,12.4,0,0,1-14.794,12.159,12.027,12.027,0,0,1-3.185-1.1,12.388,12.388,0,0,1-6.453-8.1,12.209,12.209,0,0,1-.36-2.964,12.4,12.4,0,1,1,24.792,0Z" transform="translate(-217.98 -138.222)" fill="#a0616a"/>
      <path id="Path_51" data-name="Path 51" d="M294.487,227.453l-.548,15.951-10.43,4.121s-1.023-16.333-2.467-17.238S294.487,227.453,294.487,227.453Z" transform="translate(-234.363 -170.146)" fill="#a0616a"/>
      <path id="Path_52" data-name="Path 52" d="M246.731,264.731s14.552-14.552,18.324-14.013,3.773,2.156,3.773,3.234-1.078,1.617,0,2.156,2.156,0,2.156,1.617,9.7,17.785,6.467,35.571-7.006,26.409-5.39,36.11.539,11.857.539,11.857-40.421,3.234-40.96-.539,1.617-1.617-1.078-4.312-1.617-2.695-1.617-4.312S240.8,264.731,246.731,264.731Z" transform="translate(-200.134 -185.389)" fill="#575a89"/>
      <path id="Path_53" data-name="Path 53" d="M278.1,495.034s-6.467,15.63-11.318,11.857,2.156-16.707,2.156-16.707Z" transform="translate(-223.958 -342.395)" fill="#fff"/>
      <path id="Path_54" data-name="Path 54" d="M295.961,294.378s12.663,1.45,7.948,24.708-23.039,50.206-23.039,50.206l-12.4-5.928,16.169-31.8-3.773-19.941S278.715,292.761,295.961,294.378Z" transform="translate(-226.189 -213.958)" fill="#575a89"/>
      <path id="Path_55" data-name="Path 55" d="M136.66,342.279l-17.786,29.642,1.617,1.617Z" transform="translate(-77.935 -224.402)" opacity="0.2"/>
      <path id="Path_56" data-name="Path 56" d="M170.7,382.389l-14.265,23.374h4.851Z" transform="translate(-102.559 -250.699)" opacity="0.2"/>
      <rect id="Rectangle_10" data-name="Rectangle 10" width="0.767" height="39.798" transform="translate(35.199 174.441) rotate(-20.877)" opacity="0.2"/>
      <circle id="Ellipse_12" data-name="Ellipse 12" cx="0.767" cy="0.767" r="0.767" transform="translate(45.907 80.768)" fill="#d0cde1"/>
      <line id="Line_1" data-name="Line 1" x1="6.517" y2="21.084" transform="translate(40.157 81.534)" fill="none"/>
      <path id="Path_57" data-name="Path 57" d="M261.564,318.539a.383.383,0,0,0,.366-.27l6.517-21.084a.383.383,0,1,0-.732-.226L261.2,318.042a.384.384,0,0,0,.366.5Z" transform="translate(-221.407 -215.537)" fill="#d0cde1"/>
      <path id="Path_58" data-name="Path 58" d="M265.238,226.649l-3.1,2.947c-3.19-1.605-6.272-5.932-7.142-9.477l4.064-1.7C259.329,222.032,261.9,224.436,265.238,226.649Z" transform="translate(-217.354 -164.221)" fill="#fff"/>
      <path id="Path_59" data-name="Path 59" d="M272.769,219.96l-.037,0-7.2-1.029a.257.257,0,0,1,.072-.51l7.2,1.029a.257.257,0,0,1-.036.512Z" transform="translate(-224.112 -164.221)" fill="#fff"/>
      <path id="Path_60" data-name="Path 60" d="M283.494,233.254a.257.257,0,0,1-.224-.383l2.387-4.249a.257.257,0,1,1,.448.252l-2.387,4.249A.257.257,0,0,1,283.494,233.254Z" transform="translate(-235.867 -170.826)" fill="#fff"/>
      <path id="Path_61" data-name="Path 61" d="M274.268,187.616a17.843,17.843,0,0,0-3.255-.97,8.517,8.517,0,0,1-5.658-9.548,4.872,4.872,0,0,0,.2-1.574,3,3,0,0,0-2.505-2.207,24.661,24.661,0,0,1-3.489-.664,5.284,5.284,0,0,1-3.083-4.237,8.752,8.752,0,0,1,1.169-5.275l.417,1.2a4.454,4.454,0,0,0,1.363-2.039,2.809,2.809,0,0,1,2.14,1.721c.67.395.766-1.227,1.506-1.466a1.329,1.329,0,0,1,.923.228c1.491.7,3.223.1,4.822-.285a18.152,18.152,0,0,1,8.427-.01,10.087,10.087,0,0,1,4.98,2.562,11.95,11.95,0,0,1,2.33,4,23.062,23.062,0,0,1,1.88,11.2,15.853,15.853,0,0,1-3.736,8.4c-1.067,1.229-4.547,5.517-6.455,4.786C273.851,192.523,277.093,189.11,274.268,187.616Z" transform="translate(-218.287 -127.234)" fill="#2f2e41"/>
    </g>
  </g>
</svg>
