<svg xmlns="http://www.w3.org/2000/svg" width="17.675" height="22.328" viewBox="0 0 17.675 22.328">
  <g id="android" transform="translate(-53.35 0.001)">
    <g id="Group_1289" data-name="Group 1289" transform="translate(57.071 8.373)">
      <g id="Group_1288" data-name="Group 1288" transform="translate(0)">
        <path id="Path_1278" data-name="Path 1278" d="M148.451,192.034h-9.3a.465.465,0,0,0-.465.465v7.442a2.33,2.33,0,0,0,1.861,2.279v2.372a1.4,1.4,0,1,0,2.791,0v-2.326h.93v2.326a1.4,1.4,0,1,0,2.791,0V202.22a2.329,2.329,0,0,0,1.861-2.279V192.5A.465.465,0,0,0,148.451,192.034Z" transform="translate(-138.683 -192.034)"/>
      </g>
    </g>
    <g id="Group_1291" data-name="Group 1291" transform="translate(57.071 -0.001)">
      <g id="Group_1290" data-name="Group 1290" transform="translate(0 0)">
        <path id="Path_1279" data-name="Path 1279" d="M146.235,2.478l.784-1.83a.465.465,0,1,0-.855-.366l-.784,1.831a5.069,5.069,0,0,0-3.157,0L141.437.283a.464.464,0,1,0-.854.366l.784,1.83a5.12,5.12,0,0,0-2.683,4.5.465.465,0,0,0,.465.465h9.3a.465.465,0,0,0,.465-.465A5.121,5.121,0,0,0,146.235,2.478Zm-4.3,3.1a.465.465,0,1,1,.465-.465A.465.465,0,0,1,141.94,5.583Zm3.721,0a.465.465,0,1,1,.465-.465A.465.465,0,0,1,145.661,5.583Z" transform="translate(-138.684 0.001)"/>
      </g>
    </g>
    <g id="Group_1293" data-name="Group 1293" transform="translate(68.234 8.373)">
      <g id="Group_1292" data-name="Group 1292" transform="translate(0)">
        <path id="Path_1280" data-name="Path 1280" d="M396.079,192.034a1.4,1.4,0,0,0-1.4,1.4v4.651a1.4,1.4,0,1,0,2.791,0v-4.651A1.4,1.4,0,0,0,396.079,192.034Z" transform="translate(-394.684 -192.034)"/>
      </g>
    </g>
    <g id="Group_1295" data-name="Group 1295" transform="translate(53.35 8.373)">
      <g id="Group_1294" data-name="Group 1294" transform="translate(0)">
        <path id="Path_1281" data-name="Path 1281" d="M54.745,192.034a1.4,1.4,0,0,0-1.4,1.4v4.651a1.4,1.4,0,0,0,2.791,0v-4.651A1.4,1.4,0,0,0,54.745,192.034Z" transform="translate(-53.35 -192.034)"/>
      </g>
    </g>
  </g>
</svg>
