<svg xmlns="http://www.w3.org/2000/svg" width="18.763" height="22.328" viewBox="0 0 18.763 22.328">
  <path id="apple-brands" d="M19.687,43.8a4.654,4.654,0,0,1,2.492-4.227,5.356,5.356,0,0,0-4.222-2.223c-1.77-.14-3.7,1.032-4.412,1.032-.748,0-2.462-.982-3.808-.982C6.956,37.443,4,39.617,4,44.038a12.424,12.424,0,0,0,.718,4.048c.638,1.829,2.941,6.316,5.344,6.241,1.256-.03,2.143-.892,3.778-.892,1.585,0,2.408.892,3.808.892,2.423-.035,4.506-4.112,5.114-5.947A4.941,4.941,0,0,1,19.687,43.8Zm-2.821-8.185A4.7,4.7,0,0,0,18.062,32a5.286,5.286,0,0,0-3.385,1.74A4.768,4.768,0,0,0,13.4,37.324,4.186,4.186,0,0,0,16.866,35.614Z" transform="translate(-4 -32)"/>
</svg>
