<svg xmlns="http://www.w3.org/2000/svg" width="207.084" height="188.259" viewBox="0 0 207.084 188.259">
  <g id="chevron" transform="translate(0 -15)">
    <path id="XMLID_197_" d="M191.016,137.757,103.545,225.23,16.069,137.757A9.413,9.413,0,0,0,2.758,151.069L96.889,245.2a9.412,9.412,0,0,0,13.311,0l94.127-94.129a9.412,9.412,0,1,0-13.311-13.311Z" transform="translate(0 -44.697)" fill="#ebebeb"/>
    <path id="XMLID_221_" d="M96.889,125.2a9.412,9.412,0,0,0,13.311,0l94.127-94.129a9.413,9.413,0,1,0-13.312-13.312L103.544,105.23,16.069,17.757A9.413,9.413,0,1,0,2.758,31.068Z" fill="#ebebeb"/>
  </g>
</svg>
