<svg xmlns="http://www.w3.org/2000/svg" width="28.692" height="28.692" viewBox="0 0 28.692 28.692">
  <path id="close" d="M19.081,14.347l8.876-8.876a2.509,2.509,0,0,0,0-3.55L26.774.737a2.509,2.509,0,0,0-3.55,0L14.347,9.613,5.471.735a2.509,2.509,0,0,0-3.55,0L.736,1.919a2.51,2.51,0,0,0,0,3.55l8.878,8.878L.738,23.223a2.509,2.509,0,0,0,0,3.55l1.183,1.183a2.509,2.509,0,0,0,3.55,0l8.876-8.876,8.876,8.876a2.51,2.51,0,0,0,3.55,0l1.183-1.183a2.51,2.51,0,0,0,0-3.55Zm0,0" transform="translate(0 0)" fill="#fffbff"/>
</svg>
