<svg xmlns="http://www.w3.org/2000/svg" width="28.717" height="28.717" viewBox="0 0 28.717 28.717">
  <path id="close-btn" d="M19.1,14.359l8.884-8.884a2.512,2.512,0,0,0,0-3.553L26.8.738a2.511,2.511,0,0,0-3.553,0L14.36,9.622,5.476.736a2.512,2.512,0,0,0-3.553,0L.737,1.92a2.512,2.512,0,0,0,0,3.553l8.885,8.885L.738,23.243a2.511,2.511,0,0,0,0,3.553l1.184,1.184a2.512,2.512,0,0,0,3.553,0L14.36,19.1l8.884,8.884a2.512,2.512,0,0,0,3.553,0L27.981,26.8a2.512,2.512,0,0,0,0-3.553Zm0,0" transform="translate(0 0)" fill="#efefef"/>
</svg>
