<svg xmlns="http://www.w3.org/2000/svg" xmlns:xlink="http://www.w3.org/1999/xlink" width="32.109" height="32.109" viewBox="0 0 32.109 32.109">
  <defs>
    <clipPath id="clip-path">
      <path id="Path_54" data-name="Path 54" d="M0,0H32.109V32.109H0Z"/>
    </clipPath>
    <clipPath id="clip-path-2">
      <path id="Path_31" data-name="Path 31" d="M0,0V11H13.78V0H0" transform="translate(0 0)" fill="#fff"/>
    </clipPath>
    <clipPath id="clip-path-4">
      <path id="Path_44" data-name="Path 44" d="M0,0V9.051H16.151V0H0" fill="#fff"/>
    </clipPath>
    <clipPath id="clip-path-5">
      <path id="Path_49" data-name="Path 49" d="M25.742,11.737c0,.033-2.667,1.865-2.667,1.865l7.818,6.012,1.463-1.647s-6.614-6.263-6.614-6.23" transform="translate(-23.075 -11.737)" fill="#798b8b"/>
    </clipPath>
  </defs>
  <g id="delivery-icon" transform="translate(-887 -413.891)">
    <g id="Group_81" data-name="Group 81" transform="translate(887 413.891)">
      <g id="Group_78" data-name="Group 78" clip-path="url(#clip-path)">
        <g id="Group_41" data-name="Group 41">
          <g id="Group_40" data-name="Group 40">
            <path id="Path_28" data-name="Path 28" d="M-7.945-24A16.062,16.062,0,0,1,8.109-7.945,16.062,16.062,0,0,1-7.945,8.109,16.062,16.062,0,0,1-24-7.945,16.062,16.062,0,0,1-7.945-24Z" transform="translate(24 24)" fill="rgba(21,21,21,0.65)"/>
            <path id="Path_29" data-name="Path 29" d="M-7.945-24A16.062,16.062,0,0,1,8.109-7.945,16.062,16.062,0,0,1-7.945,8.109,16.062,16.062,0,0,1-24-7.945,16.062,16.062,0,0,1-7.945-24Z" transform="translate(24 24)" fill="rgba(21,21,21,0.65)" stroke="#00ccbe" stroke-width="0"/>
          </g>
        </g>
        <g id="Group_43" data-name="Group 43" transform="translate(-5.914 20.069) rotate(-28.8)" clip-path="url(#clip-path-2)">
          <g id="Group_42" data-name="Group 42" transform="translate(4.068 7.253)">
            <path id="Path_30" data-name="Path 30" d="M3.679,0A3.679,3.679,0,1,1,0,3.679,3.681,3.681,0,0,1,3.679,0Z" fill="rgba(0,0,0,0)" stroke="#91a7a7" stroke-miterlimit="1" stroke-width="2.5"/>
          </g>
        </g>
        <g id="Group_45" data-name="Group 45" transform="translate(0.79 20.565)">
          <g id="Group_44" data-name="Group 44" transform="translate(0 0)">
            <path id="Path_32" data-name="Path 32" d="M-2.648-8A5.354,5.354,0,0,1,2.7-2.648,5.354,5.354,0,0,1-2.648,2.7,5.354,5.354,0,0,1-8-2.648,5.354,5.354,0,0,1-2.648-8Z" transform="translate(8 8)" fill="rgba(0,0,0,0)" stroke="#450064" stroke-miterlimit="1" stroke-width="2.5"/>
          </g>
        </g>
        <g id="Group_47" data-name="Group 47" transform="translate(8.457 12.785)">
          <g id="Group_46" data-name="Group 46">
            <path id="Path_33" data-name="Path 33" d="M-7.715-4.829a3.009,3.009,0,0,0-3.437,1.89c-.786,1.856.8,3.57,2.759,3.52C-8.392.6-3.877.389-3.877.389S-4.941,3.254-5.533,4.62c-.87,2.007,1.572,3.01,2.375.836C-2.585,3.9-1.218.84-.942.071c.177-.494.552-1.121-.209-1.739C-1.954-2.32-7.715-4.829-7.715-4.829Z" transform="translate(11.357 4.887)" fill="#450064"/>
          </g>
        </g>
        <g id="Group_49" data-name="Group 49" transform="translate(13.373 22.167) rotate(-31.572)">
          <g id="Group_48" data-name="Group 48" transform="translate(0)">
            <path id="Path_34" data-name="Path 34" d="M2.163,0S-1.642,2.025.841,3.046L.968,3.1l1.823.736s1.5.744,1.923-.084a1.4,1.4,0,0,0-.36-1.681C4.12,1.806,2.163,0,2.163,0Z" fill="#450064"/>
          </g>
        </g>
        <g id="Group_51" data-name="Group 51" transform="translate(13.887 20.069) rotate(-28.8)" clip-path="url(#clip-path-2)">
          <g id="Group_50" data-name="Group 50" transform="translate(4.068 7.253)">
            <path id="Path_35" data-name="Path 35" d="M3.679,0A3.679,3.679,0,1,1,0,3.679,3.681,3.681,0,0,1,3.679,0Z" fill="rgba(0,0,0,0)" stroke="#91a7a7" stroke-miterlimit="1" stroke-width="2.5"/>
          </g>
        </g>
        <g id="Group_53" data-name="Group 53" transform="translate(20.591 20.565)">
          <g id="Group_52" data-name="Group 52" transform="translate(0 0)">
            <path id="Path_37" data-name="Path 37" d="M-2.648-8A5.354,5.354,0,0,1,2.7-2.648,5.354,5.354,0,0,1-2.648,2.7,5.354,5.354,0,0,1-8-2.648,5.354,5.354,0,0,1-2.648-8Z" transform="translate(8 8)" fill="rgba(0,0,0,0)" stroke="#450064" stroke-miterlimit="1" stroke-width="2.5"/>
          </g>
        </g>
        <g id="Group_55" data-name="Group 55" transform="translate(6.271 17.936)">
          <g id="Group_54" data-name="Group 54">
            <path id="Path_38" data-name="Path 38" d="M-4.215,10.092l-10.41-.8,5.268-7.977" transform="translate(14.625 -1.313)" fill="rgba(0,0,0,0)" stroke="#fb5058" stroke-linecap="round" stroke-linejoin="round" stroke-width="2.344"/>
          </g>
        </g>
        <g id="Group_57" data-name="Group 57" transform="translate(8.909 6.321)">
          <g id="Group_56" data-name="Group 56">
            <path id="Path_39" data-name="Path 39" d="M-5.544-14.7s-.034.15-.276.125c-1.555-.159-4.761,7.042-4.761,7.043s6.366-.006,6.366-.006l2.427-5.749Z" transform="translate(10.581 14.7)" fill="#798b8b"/>
          </g>
        </g>
        <g id="Group_60" data-name="Group 60" transform="translate(13.161 1.806)">
          <g id="Group_58" data-name="Group 58" transform="translate(1.826 0)">
            <path id="Path_40" data-name="Path 40" d="M-1.3-3.922A2.625,2.625,0,0,1,1.325-1.3,2.625,2.625,0,0,1-1.3,1.325,2.625,2.625,0,0,1-3.922-1.3,2.625,2.625,0,0,1-1.3-3.922Z" transform="translate(3.922 3.922)" fill="#f96"/>
          </g>
          <g id="Group_59" data-name="Group 59" transform="translate(0 3.294)">
            <path id="Path_41" data-name="Path 41" d="M-.213-10.014l-.836,3.094L3.215-5.081,6.059-7.506Z" transform="translate(1.049 10.014)" fill="#798b8b"/>
            <path id="Path_42" data-name="Path 42" d="M-.213-10.014l-.836,3.094L3.215-5.081,6.059-7.506Z" transform="translate(1.049 10.014)" fill="#798b8b" stroke="#06c167" stroke-width="0"/>
          </g>
        </g>
        <g id="Group_62" data-name="Group 62" transform="translate(10.24 -7.608) rotate(15)" clip-path="url(#clip-path-4)">
          <g id="Group_61" data-name="Group 61" transform="translate(6.487 5.389)">
            <path id="Path_43" data-name="Path 43" d="M3.622,0A3.622,3.622,0,1,1,0,3.622,3.623,3.623,0,0,1,3.622,0Z" fill="#9c006d"/>
          </g>
        </g>
        <g id="Group_64" data-name="Group 64" transform="translate(11.539 17.936)">
          <g id="Group_63" data-name="Group 63">
            <path id="Path_45" data-name="Path 45" d="M4.037,1.313H-6.75l3.8,8.654Z" transform="translate(6.75 -1.313)" fill="rgba(0,0,0,0)" stroke="#fb5058" stroke-linecap="round" stroke-linejoin="round" stroke-width="2.344"/>
          </g>
        </g>
        <g id="Group_66" data-name="Group 66" transform="translate(13.203 23.992)">
          <g id="Group_65" data-name="Group 65" transform="translate(0)">
            <path id="Path_46" data-name="Path 46" d="M-1.241-3.75A2.51,2.51,0,0,1,1.267-1.241,2.51,2.51,0,0,1-1.241,1.267,2.51,2.51,0,0,1-3.75-1.241,2.51,2.51,0,0,1-1.241-3.75Z" transform="translate(3.75 3.75)" fill="#91a7a7"/>
            <path id="Path_47" data-name="Path 47" d="M-1.241-3.75A2.51,2.51,0,0,1,1.267-1.241,2.51,2.51,0,0,1-1.241,1.267,2.51,2.51,0,0,1-3.75-1.241,2.51,2.51,0,0,1-1.241-3.75Z" transform="translate(3.75 3.75)" fill="rgba(0,0,0,0)" stroke="#450064" stroke-width="0"/>
          </g>
        </g>
        <g id="Group_68" data-name="Group 68" transform="translate(-0.502 1.344) rotate(-4.259)">
          <g id="Group_67" data-name="Group 67" transform="matrix(0.819, 0.574, -0.574, 0.819, 5.564, 0)">
            <path id="Path_48" data-name="Path 48" d="M9.7,0V9.7H0V0Z" fill="#06c167"/>
          </g>
        </g>
        <g id="Group_69" data-name="Group 69" transform="translate(15.436 7.852)" clip-path="url(#clip-path-5)">
          <rect id="Rectangle_3" data-name="Rectangle 3" width="32" height="32" transform="translate(-15.436 -7.742)" fill="#798b8b"/>
        </g>
        <g id="Group_71" data-name="Group 71" transform="translate(22.287 15.709) rotate(-45)">
          <g id="Group_70" data-name="Group 70" transform="translate(0 0)">
            <path id="Path_50" data-name="Path 50" d="M3.345,1V2.341a1,1,0,0,1-1,1H1a1,1,0,0,1-1-1V1A1,1,0,0,1,1,0H2.341A1,1,0,0,1,3.345,1Z" fill="#f96"/>
          </g>
        </g>
        <g id="Group_73" data-name="Group 73" transform="translate(22.075 15.517)">
          <g id="Group_72" data-name="Group 72" transform="translate(0 0)">
            <path id="Path_51" data-name="Path 51" d="M12.855,8.067,9-2.15,10.923-2.3" transform="translate(-9 2.304)" fill="rgba(0,0,0,0)" stroke="#fb5058" stroke-linecap="round" stroke-linejoin="round" stroke-width="2.344"/>
          </g>
        </g>
        <g id="Group_75" data-name="Group 75" transform="translate(15.363 27.779) rotate(-7.857)">
          <g id="Group_74" data-name="Group 74">
            <path id="Path_52" data-name="Path 52" d="M2.163,0S-1.642,2.025.841,3.046L.968,3.1l1.823.736s1.5.744,1.923-.084a1.4,1.4,0,0,0-.36-1.681C4.12,1.806,2.163,0,2.163,0Z" fill="#06c167"/>
          </g>
        </g>
        <g id="Group_77" data-name="Group 77" transform="translate(8.327 13.383)">
          <g id="Group_76" data-name="Group 76" transform="translate(0 0)">
            <path id="Path_53" data-name="Path 53" d="M-4.534-3.987s-6.364-.025-6.372,0c-1.882,2.819,1,4.942,1,4.942l3.995,4.336s1.554,6.87,1.566,6.873c.425,1.811,2.771,1.577,2.461-.639-.159-1.438-.506-6.187-.669-7.093a2.511,2.511,0,0,0-.335-1.161l-2.655-4.82Z" transform="translate(11.545 3.997)" fill="#06c167"/>
          </g>
        </g>
      </g>
    </g>
  </g>
</svg>
